<svg width="89" height="59" fill="none" xmlns="http://www.w3.org/2000/svg"><path fill-rule="evenodd" clip-rule="evenodd" d="M12.8 22.3c1-2 1.4-3 2-3.8.6-.7 1.3-1.4 2.1-1.8 1-.6 2-.8 4.1-1.4l45-12c4.2-1.2 6.3-1.8 8.2-1.4 1.6.4 3 1.2 4.1 2.4 1.3 1.4 1.8 3.5 3 7.7L85 26c1.2 4.3 1.7 6.4 1.3 8.2-.3 1.6-1.2 3-2.4 4.2-1.4 1.2-3.5 1.8-7.7 2.9l-45 12c-2.1.6-3.2 1-4.2 1s-1.9-.3-2.8-.6c-1-.4-1.8-1-3.6-2.3l-7.5-5.5c-2.8-2.1-4.3-3.2-5-4.6-.8-1.2-1.2-2.6-1.2-4 0-1.6.8-3.2 2.2-6.5l3.7-8.5Z" fill="url(#a)"/><path d="m25.5 37.4-.7-2.6-6.7 1.8.7 2.6 6.7-1.8ZM34.8 40.3c3.4-1 5.2-3.7 4.3-6.8a4.9 4.9 0 0 0-6.2-3.6c-1.5.4-2.5 1.3-2.8 2.5l-.8-4.2 7-1.8-.7-2.5-9.4 2.5 1.6 8.7 2.7-.7a3 3 0 0 1 2.2-2c1.6-.5 3 .3 3.5 2 .4 1.6-.4 3-2 3.4-1.4.4-2.8-.1-3.3-1.3l-2.8.7c.8 2.7 3.6 4 6.7 3ZM48 36.7c3.7-1 5.2-4.5 4-9.3-1.4-4.8-4.4-7-8.1-6-3.7 1-5.2 4.5-4 9.2 1.4 4.8 4.4 7.1 8.1 6.1Zm-.6-2.4c-1.8.4-3.4-1.2-4.3-4.5-.9-3.4-.3-5.5 1.5-6 1.7-.5 3.3 1.1 4.2 4.4.9 3.4.3 5.6-1.4 6ZM62.4 20.2c-.7-2.3-2.3-3.4-4.4-2.9-2 .6-3 2.4-2.4 4.7.7 2.4 2.4 3.5 4.4 3 2.1-.6 3-2.4 2.4-4.8Zm-2.9 3c-.6.1-1.2-.5-1.6-1.8-.3-1.3-.1-2.1.6-2.3.6-.2 1.2.5 1.6 1.7.3 1.3.1 2.2-.6 2.4Zm3 9 3.4-8.5 3.5-9.1-2.5.6-3.2 8.3-3.6 9.4 2.5-.7Zm11.3-6.9c-.6-2.3-2.3-3.5-4.3-3-2.1.6-3 2.5-2.4 4.8.6 2.4 2.3 3.5 4.4 3 2-.6 3-2.4 2.3-4.8Zm-2.8 3c-.7.1-1.3-.6-1.6-1.8-.3-1.3-.1-2.2.5-2.3.7-.2 1.3.4 1.6 1.7.4 1.3.2 2.1-.5 2.3Z" fill="#fff"/><defs><linearGradient id="a" x1="0" y1="20.9" x2="88.8" y2="34" gradientUnits="userSpaceOnUse"><stop stop-color="#E25CF2"/><stop offset="1" stop-color="#FA3C55"/></linearGradient></defs></svg>