<svg xmlns="http://www.w3.org/2000/svg" xml:space="preserve" width="892px" height="844px" version="1.0" shape-rendering="geometricPrecision" text-rendering="geometricPrecision" image-rendering="optimizeQuality" fill-rule="evenodd" clip-rule="evenodd" viewBox="0 0 892 844.74" xmlns:xlink="http://www.w3.org/1999/xlink" xmlns:xodm="http://www.corel.com/coreldraw/odm/2003"> <defs> <linearGradient id="id0" gradientUnits="userSpaceOnUse" x1="752.83" y1="120.85" x2="54.91" y2="786.55"> <stop offset="0" stop-opacity="1" stop-color="#007DD7"/> <stop offset="1" stop-opacity="1" stop-color="#0099E9"/> </linearGradient> </defs> <g id="Слой_x0020_1"> <metadata id="CorelCorpID_0Corel-Layer"/> <rect fill="url(#id0)" x="11.96" y="94" width="756.97" height="740.87" rx="94.52" ry="94.52"/> <circle fill="#0080D9" stroke="white" stroke-width="59.07" stroke-miterlimit="22.9256" cx="734.04" cy="150.37" r="115.43"/> <g> <path fill="white" fill-rule="nonzero" d="M184.59 618.27c-10.43,12.54 -29.05,14.26 -41.6,3.83 -12.54,-10.43 -14.25,-29.05 -3.82,-41.6l45.42 37.77zm124.87 -150.17l-124.87 150.17 -45.42 -37.77 124.87 -150.17 41.63 -3.8 3.79 41.57zm-45.42 -37.77c10.43,-12.54 29.06,-14.25 41.6,-3.82 12.54,10.42 14.25,29.05 3.82,41.59l-45.42 -37.77zm110.25 130.34l-106.45 -88.77 37.83 -45.37 106.45 88.77 3.19 42.27 -41.02 3.1zm37.83 -45.37c12.53,10.44 14.21,29.07 3.77,41.6 -10.45,12.52 -29.08,14.21 -41.6,3.77l37.83 -45.37zm153.77 -127.69l-150.58 169.96 -44.21 -39.18 150.58 -169.95 44.21 39.17zm-44.21 -39.17c10.81,-12.21 29.48,-13.34 41.69,-2.52 12.21,10.81 13.34,29.48 2.52,41.69l-44.21 -39.17z"/> </g> <polyline fill="none" stroke="white" stroke-width="59.07" stroke-linecap="round" stroke-miterlimit="22.9256" points="400.27,357.79 565.93,349.79 564.17,498.71 "/> </g> </svg>