<svg xmlns="http://www.w3.org/2000/svg" xml:space="preserve" width="2480px" height="2480px" version="1.0" shape-rendering="geometricPrecision" text-rendering="geometricPrecision" image-rendering="optimizeQuality" fill-rule="evenodd" clip-rule="evenodd" viewBox="0 0 2480 2480" xmlns:xlink="http://www.w3.org/1999/xlink" xmlns:xodm="http://www.corel.com/coreldraw/odm/2003"> <path fill="#B8B9BE" fill-rule="nonzero" d="M1479.14 1479.14c-194.85,201.06 -209.03,451.72 -225.85,1000.86 511.94,0 865.34,-1.77 1047.8,-178.91 177.14,-182.46 178.91,-552.69 178.91,-1047.8 -549.14,17.71 -799.8,31 -1000.86,225.85l0 0zm-1479.14 -225.85c0,495.11 1.77,865.34 178.91,1047.8 182.46,177.14 535.86,178.91 1047.8,178.91 -17.71,-549.14 -31,-799.8 -225.85,-1000.86 -201.06,-194.85 -451.72,-209.03 -1000.86,-225.85l0 0zm1226.71 -1253.29c-511.05,0 -865.34,1.77 -1047.8,178.91 -177.14,182.46 -178.91,552.69 -178.91,1047.8 549.14,-17.71 799.8,-31 1000.86,-225.85 194.85,-201.06 209.03,-451.72 225.85,-1000.86l0 0zm252.43 1000.86c-194.85,-201.06 -209.03,-451.72 -225.85,-1000.86 511.94,0 865.34,1.77 1047.8,178.91 177.14,182.46 178.91,552.69 178.91,1047.8 -549.14,-17.71 -799.8,-31 -1000.86,-225.85z"/> <path fill="white" fill-rule="nonzero" d="M2480 1253.29l0 -26.58c-549.14,-17.71 -799.8,-31 -1000.86,-225.85 -194.85,-201.06 -209.03,-451.72 -225.85,-1000.86l-26.58 0c-17.71,549.14 -31,799.8 -225.85,1000.86 -201.06,194.85 -451.72,209.03 -1000.86,225.85l0 26.58c549.14,17.71 799.8,31 1000.86,225.85 194.85,201.06 209.03,451.72 225.85,1000.86l26.58 0c17.71,-549.14 31,-799.8 225.85,-1000.86 201.06,-194.85 451.72,-209.03 1000.86,-225.85z"/> </svg>