<svg xmlns="http://www.w3.org/2000/svg" xmlns:xlink="http://www.w3.org/1999/xlink" xmlns:xodm="http://www.corel.com/coreldraw/odm/2003" xml:space="preserve" version="1.1"  viewBox="0 0 5111.69 1243.94">
<defs>
  <style type="text/css">
   <![CDATA[
    .fil0 {fill:#01A0E2}
    .fil1 {fill:#09425D}
    .fil3 {fill:#01A0E2;fill-rule:nonzero}
    .fil2 {fill:#09425D;fill-rule:nonzero}
   ]]>
  </style>
 </defs>
<g xmlns="http://www.w3.org/2000/svg">
    <path class="fil0" d="M2793.75 0c285.47,0 516.52,231.42 516.89,516.89 0.21,163.6 -63.07,282.81 -179.24,392.67 -114.97,108.73 -225.76,222.52 -337.65,334.39 -54.62,-54.61 -108.98,-109.67 -163.68,-164.38l358.56 -357.22c53.29,-51.19 86.46,-123.17 86.46,-202.9 0,-155.38 -125.96,-281.34 -281.34,-281.34 -155.38,0 -281.34,125.96 -281.34,281.34 0,80.41 33.74,152.94 87.83,204.22l109.33 109.12 -163.83 163.2c-29.66,-29.07 -59.51,-57.92 -89.64,-86.42 -116.17,-109.86 -179.45,-229.07 -179.24,-392.67 0.37,-285.47 231.42,-516.89 516.89,-516.89z"/>
    <path class="fil1" d="M3059.41 612.25c10.15,-29.06 15.67,-60.29 15.67,-92.81 0,-155.38 -125.96,-281.34 -281.34,-281.34 -155.38,0 -281.34,125.96 -281.34,281.34 0,80.41 33.74,152.94 87.83,204.22l109.33 109.12 -163.83 163.2c-29.66,-29.07 -59.51,-57.92 -89.64,-86.42 -116.17,-109.86 -179.45,-229.07 -179.24,-392.67 0.17,-129.46 47.78,-247.81 126.4,-338.49 125.86,-108.92 256.5,-156.5 427.26,-99.82 205.72,68.28 304.89,291.27 246.02,490.12 -5.06,17.09 -11.12,31.6 -17.12,43.56z"/>
    <path class="fil1" d="M2800.77 347.05c96.8,0 175.26,78.47 175.26,175.26 0,96.79 -78.47,175.26 -175.26,175.26 -96.79,0 -175.26,-78.47 -175.26,-175.26 0,-96.79 78.47,-175.26 175.26,-175.26z"/>
   </g>
</svg>