<svg xmlns="http://www.w3.org/2000/svg" xml:space="preserve" width="2262px" height="1848px" version="1.0" shape-rendering="geometricPrecision" text-rendering="geometricPrecision" image-rendering="optimizeQuality" fill-rule="evenodd" clip-rule="evenodd" viewBox="0 0 2262 1848.58" xmlns:xlink="http://www.w3.org/1999/xlink" xmlns:xodm="http://www.corel.com/coreldraw/odm/2003"> <g id="Слой_x0020_1"> <metadata id="CorelCorpID_0Corel-Layer"/> <ellipse fill="#E9ECEE" cx="668.83" cy="1154.03" rx="665.06" ry="682.56"/> <polygon fill="white" fill-rule="nonzero" points="526.66,1393.47 1053.75,1393.47 1053.75,1217.77 526.66,1217.77 "/> <polygon fill="white" fill-rule="nonzero" points="526.66,1393.47 1053.75,1393.47 1053.75,1305.62 526.66,1305.62 "/> <polygon fill="white" fill-rule="nonzero" points="1346.58,1188.49 2225.07,1188.49 2225.07,46.45 1346.58,46.45 "/> <path fill="white" fill-rule="nonzero" d="M1346.58 163.58l585.66 0c64.69,0 117.13,52.45 117.13,117.13l0 907.78 -702.79 0 0 -1024.91z"/> <polygon fill="white" fill-rule="nonzero" points="1053.75,1393.47 1932.24,1393.47 1932.24,251.43 1053.75,251.43 "/> <path fill="white" fill-rule="nonzero" d="M1053.75 514.98l527.09 0c80.87,0 146.42,65.54 146.42,146.41l0 732.08 -673.51 0 0 -878.49z"/> <polygon fill="#AFCBE1" fill-rule="nonzero" points="1053.75,485.69 1053.75,602.83 995.19,602.83 848.77,456.41 526.66,456.41 526.66,339.28 907.34,339.28 "/> <polygon fill="#AFCBE1" fill-rule="nonzero" points="848.77,397.85 526.66,397.85 526.66,456.41 848.77,456.41 995.19,602.83 1053.75,602.83 1053.75,544.26 995.19,544.26 "/> <path fill="#CDE3F3" fill-rule="nonzero" d="M1639.41 719.96l0 673.51c0,64.68 -52.45,117.13 -117.13,117.13l-995.62 0c-64.69,0 -117.13,-52.45 -117.13,-117.13l0 -937.06 439.24 0 146.42 146.42 527.09 0c64.68,0 117.13,52.44 117.13,117.13zm-585.66 673.51l0 -175.7 -527.09 0 0 175.7 527.09 0z"/> <path fill="#AFCBE1" fill-rule="nonzero" d="M526.66 1393.47l0 -937.06 -117.13 0 0 937.06c0,64.68 52.44,117.13 117.13,117.13l117.13 0c-64.68,0 -117.13,-52.45 -117.13,-117.13z"/> <polygon fill="#AFCBE1" fill-rule="nonzero" points="1053.75,1393.47 1170.88,1393.47 1170.88,1217.77 1053.75,1217.77 "/> <polygon fill="#11A892" fill-rule="nonzero" points="1141.6,397.85 1200.17,397.85 1200.17,339.28 1141.6,339.28 "/> <polygon fill="#11A892" fill-rule="nonzero" points="1258.73,397.85 1493,397.85 1493,339.28 1258.73,339.28 "/> <polygon fill="#11A892" fill-rule="nonzero" points="1141.6,514.98 1844.39,514.98 1844.39,456.41 1141.6,456.41 "/> <polygon fill="#11A892" fill-rule="nonzero" points="614.51,1334.9 673.07,1334.9 673.07,1276.34 614.51,1276.34 "/> <polygon fill="#11A892" fill-rule="nonzero" points="731.64,1334.9 965.9,1334.9 965.9,1276.34 731.64,1276.34 "/> <path fill="#48566E" fill-rule="nonzero" d="M2225.07 17.17l-878.49 0c-16.16,0 -29.28,13.12 -29.28,29.28l0 175.7 -263.55 0c-16.16,0 -29.28,13.12 -29.28,29.28l0 163.58 -96.43 -96.43c-5.49,-5.49 -12.94,-8.58 -20.7,-8.58l-380.68 0c-16.17,0 -29.28,13.12 -29.28,29.28l0 87.85 -87.85 0c-16.17,0 -29.29,13.12 -29.29,29.28l0 937.06c0.1,80.81 65.6,146.31 146.42,146.41l995.62 0c69.54,-0.1 129.48,-49.01 143.47,-117.13l266.49 0c16.17,0 29.28,-13.12 29.28,-29.28l0 -175.7 263.55 0c16.17,0 29.28,-13.12 29.28,-29.28l0 -1142.04c0,-16.16 -13.11,-29.28 -29.28,-29.28zm-1669.13 351.39l339.27 0 129.26 129.26 0 75.72 -17.16 0 -137.84 -137.83c-5.49,-5.49 -12.94,-8.58 -20.7,-8.58l-292.83 0 0 -58.57zm1054.19 1024.91c0,48.51 -39.33,87.85 -87.85,87.85l-995.62 0c-48.52,0 -87.85,-39.34 -87.85,-87.85l0 -907.78 397.84 0 137.83 137.84c5.49,5.49 12.95,8.58 20.71,8.58l527.09 0c48.52,0 87.85,39.33 87.85,87.85l0 673.51zm292.83 -29.29l-234.27 0 0 -644.22c-0.09,-80.82 -65.6,-146.32 -146.41,-146.42l-439.25 0 0 -292.83 819.93 0 0 1083.47zm292.83 -204.98l-234.27 0 0 -907.77c0,-16.16 -13.11,-29.28 -29.28,-29.28l-556.38 0 0 -146.42 819.93 0 0 1083.47z"/> <polygon fill="#48566E" fill-rule="nonzero" points="1141.6,397.85 1200.17,397.85 1200.17,339.28 1141.6,339.28 "/> <polygon fill="#48566E" fill-rule="nonzero" points="1258.73,397.85 1493,397.85 1493,339.28 1258.73,339.28 "/> <polygon fill="#48566E" fill-rule="nonzero" points="1141.6,514.98 1844.39,514.98 1844.39,456.41 1141.6,456.41 "/> <path fill="#48566E" fill-rule="nonzero" d="M1053.75 1188.49l-527.09 0c-16.17,0 -29.28,13.12 -29.28,29.28l0 175.7c0,16.16 13.11,29.28 29.28,29.28l527.09 0c16.17,0 29.28,-13.12 29.28,-29.28l0 -175.7c0,-16.16 -13.11,-29.28 -29.28,-29.28zm-29.28 175.69l-468.53 0 0 -117.13 468.53 0 0 117.13z"/> <polygon fill="#48566E" fill-rule="nonzero" points="614.51,1334.9 673.07,1334.9 673.07,1276.34 614.51,1276.34 "/> <polygon fill="#48566E" fill-rule="nonzero" points="731.64,1334.9 965.9,1334.9 965.9,1276.34 731.64,1276.34 "/> </g> </svg>