<svg xmlns="http://www.w3.org/2000/svg" xml:space="preserve" width="2344px" height="1848px" version="1.0" shape-rendering="geometricPrecision" text-rendering="geometricPrecision" image-rendering="optimizeQuality" fill-rule="evenodd" clip-rule="evenodd" viewBox="0 0 2344 1848.04" xmlns:xlink="http://www.w3.org/1999/xlink" xmlns:xodm="http://www.corel.com/coreldraw/odm/2003"> <g id="Слой_x0020_1"> <metadata id="CorelCorpID_0Corel-Layer"/> <ellipse fill="#E9ECEE" cx="676.58" cy="1157.91" rx="664.86" ry="682.36"/> <g id="_1994567265600"> <g> <g> <g> <path fill="#BAD7ED" fill-rule="nonzero" d="M1421.32 1228.4l-328.53 0c0,0 -3.07,201.03 -27.67,274.46l383.87 0c-24.59,-73.43 -27.67,-274.46 -27.67,-274.46z" data-original="#c5d3dd"/> </g> <g> <path fill="#97B6CD" fill-rule="nonzero" d="M1424.2 1307.85l-334.28 0c2.33,-45.28 2.86,-79.45 2.86,-79.45l328.55 0c0,0 0.54,34.17 2.87,79.45z" data-original="#b6c4cf"/> </g> <g> <path fill="white" fill-rule="nonzero" d="M2013.21 1228.4l-1512.31 0c-47.45,0 -85.91,-40 -85.91,-89.35l0 -1009.08c0,-49.36 38.46,-89.36 85.91,-89.36l1512.32 0c47.45,0 85.91,40 85.91,89.36l0 1009.08c0,49.35 -38.47,89.35 -85.92,89.35z" data-original="#596c76"/> </g> <g> <path fill="white" fill-rule="nonzero" d="M2099.14 129.95l0 1009.11c0,49.34 -38.46,89.34 -85.93,89.34l-77.12 0c47.44,0 85.9,-40 85.9,-89.34l0 -1009.11c0,-49.34 -38.46,-89.34 -85.9,-89.34l77.12 0c47.47,0 85.93,40 85.93,89.34z" data-original="#465a61"/> </g> <g> <path fill="#BAD7ED" fill-rule="nonzero" d="M2013.21 1228.4l-1512.31 0c-47.45,0 -85.91,-40 -85.91,-89.35l0 -137.77 1684.14 0 0 137.77c0,49.35 -38.47,89.35 -85.92,89.35l0 0z" data-original="#d9e7ec"/> </g> <g> <path fill="#BAD7ED" fill-rule="nonzero" d="M2099.14 1001.29l0 137.77c0,49.34 -38.46,89.34 -85.93,89.34l-77.12 0c47.44,0 85.9,-40 85.9,-89.34l0 -137.77 77.15 0z" data-original="#c5d3dd"/> </g> <g> <path fill="white" fill-rule="nonzero" d="M1966.58 1001.28l-1419.05 0 0 -788.49c0,-20.81 16.22,-37.67 36.22,-37.67l1346.61 0c20.01,0 36.22,16.87 36.22,37.67l0 788.49z" data-original="#99e6fc"/> </g> <g> <path fill="white" fill-rule="nonzero" d="M1966.57 212.78l0 788.51 -76.39 0 0 -788.51c0,-20.82 -16.2,-37.66 -36.21,-37.66l76.39 0c20.01,0 36.21,16.85 36.21,37.66l0 0z" data-original="#62dbfb"/> </g> </g> <g> <path fill="white" fill-rule="nonzero" d="M2228.07 1502.86l-371.61 0c-45.04,0 -81.55,-37.98 -81.55,-84.83l0 -791.54c0,-46.85 36.51,-84.83 81.55,-84.83l371.61 0c45.04,0 81.55,37.98 81.55,84.83l0 791.54c0,46.85 -36.51,84.83 -81.55,84.83l0 0z" data-original="#c8effe"/> </g> <g> <path fill="white" fill-rule="nonzero" d="M2309.62 626.5l0 791.53c0,46.83 -36.52,84.81 -81.55,84.81l-75.7 0c45.03,0 81.54,-37.98 81.54,-84.81l0 -791.53c0,-46.84 -36.51,-84.82 -81.54,-84.82l75.7 0c45.03,0 81.55,37.98 81.55,84.82l0 0z" data-original="#99e6fc"/> </g> <g> <path fill="#8D9CA8" fill-rule="nonzero" d="M1892.67 541.66l37.08 81.85c8.55,18.89 26.83,30.94 46.9,30.94l131.22 0c20.08,0 38.35,-12.05 46.9,-30.94l37.08 -81.84 -299.18 -0.01z" data-original="#8d9ca8"/> </g> <g> <path fill="#7A8C98" fill-rule="nonzero" d="M2191.86 541.68l-37.09 81.84c-8.55,18.87 -26.81,30.94 -46.9,30.94l-75.7 0c20.09,0 38.34,-12.07 46.9,-30.94l37.09 -81.84 75.7 0z" data-original="#7a8c98"/> </g> <g> <path fill="#48566E" fill-rule="nonzero" d="M1199.14 1085.09c-15.8,0 -28.6,13.32 -28.6,29.75 0,16.43 12.8,29.75 28.6,29.75l115.83 0c15.8,0 28.61,-13.32 28.61,-29.75 0,-16.43 -12.81,-29.75 -28.61,-29.75l-115.83 0z" data-original="#000000"/> <path fill="#48566E" fill-rule="nonzero" d="M1126.2 384.44c-12.01,-10.67 -30.07,-9.19 -40.33,3.3l-297.49 362.27c-10.26,12.49 -8.84,31.27 3.17,41.94 5.39,4.79 12,7.13 18.56,7.13 8.08,0 16.11,-3.54 21.77,-10.43l297.49 -362.27c10.27,-12.49 8.84,-31.27 -3.17,-41.94z" data-original="#000000"/> <path fill="#48566E" fill-rule="nonzero" d="M791.12 600.78c5.45,5.04 12.23,7.52 18.99,7.52 7.89,0 15.74,-3.37 21.39,-9.98l80.42 -94.09c10.49,-12.28 9.43,-31.09 -2.38,-42 -11.81,-10.92 -29.89,-9.81 -40.38,2.47l-80.42 94.09c-10.49,12.27 -9.43,31.08 2.38,41.99l0 0z" data-original="#000000"/> <path fill="#48566E" fill-rule="nonzero" d="M2309.62 690.88c15.8,0 28.61,-13.32 28.61,-29.75l0 -34.64c0,-63.18 -49.42,-114.58 -110.16,-114.58l-100.34 0 0 -381.94c0,-65.68 -51.37,-119.11 -114.52,-119.11l-1512.31 0c-63.14,0 -114.52,53.43 -114.52,119.11l0 1009.08c0,65.67 51.37,119.11 114.52,119.11l562.53 0c-1.97,59.86 -7.62,159.22 -19.97,214.95l-123.34 0c-15.8,0 -28.6,13.32 -28.6,29.75 0,16.43 12.8,29.75 28.6,29.75l673.86 0c15.8,0 28.61,-13.32 28.61,-29.75 0,-16.43 -12.81,-29.75 -28.61,-29.75l-123.33 0c-12.35,-55.71 -18,-155.09 -19.97,-214.95l84.64 0c15.8,0 28.6,-13.33 28.6,-29.76 0,-16.43 -12.8,-29.75 -28.6,-29.75l-1034.42 0c-31.6,0 -57.31,-26.74 -57.31,-59.6l0 -108.02 1302.71 0 0 167.62 -76.6 0c-15.8,0 -28.61,13.32 -28.61,29.75 0,16.43 12.81,29.76 28.61,29.76l76.6 0 0 159.87c0,63.18 49.42,114.58 110.16,114.58l371.61 0c60.74,0 110.16,-51.4 110.16,-114.58l0 -620.51c0,-16.43 -12.8,-29.75 -28.6,-29.75 -15.8,0 -28.61,13.32 -28.61,29.75l0 620.51c0,30.37 -23.75,55.07 -52.95,55.07l-371.6 0.01c-29.2,0 -52.96,-24.71 -52.96,-55.08l0 -791.54c0,-30.37 23.76,-55.07 52.96,-55.07l18.06 0 29.34 64.78c13.22,29.16 41.79,48.01 72.78,48.01l131.23 -0.01c31,0 59.56,-18.84 72.77,-48.01l29.35 -64.77 18.07 0c29.19,0 52.95,24.7 52.95,55.07l0 34.64c0,16.43 12.8,29.75 28.6,29.75zm-1188.96 567.28l272.8 0c1.55,48.82 6.13,147.58 18.78,214.95l-310.36 0c12.65,-67.37 17.22,-166.13 18.78,-214.95zm-601.74 -1045.37l0 758.74 -75.33 -0.01 0 -841.55c0,-32.87 25.71,-59.61 57.31,-59.61l1512.31 0c31.6,0 57.31,26.74 57.31,59.61l0 381.94 -75.33 0 0 -299.12c0,-37.18 -29.08,-67.42 -64.83,-67.42l-1346.61 0c-35.75,0 -64.83,30.24 -64.83,67.42zm1337.54 299.12c-60.74,0 -110.16,51.4 -110.16,114.58l0 345.03 -1170.17 0 0 -758.73c0,-4.37 3.42,-7.92 7.62,-7.92l1346.61 0c4.2,0 7.62,3.55 7.62,7.92l0 299.13 -81.52 -0.01zm272.44 98.93c-3.81,8.42 -12.07,13.86 -21.02,13.86l-131.23 0c-8.95,0 -17.21,-5.44 -21.03,-13.87l-17.86 -39.42 209 0 -17.86 39.43z" data-original="#000000"/> <path fill="#48566E" fill-rule="nonzero" d="M1900.09 1022.26c0,16.45 12.83,29.79 28.65,29.79 15.82,0 28.64,-13.34 28.64,-29.79 0,-16.45 -12.82,-29.79 -28.64,-29.79 -15.82,0 -28.65,13.33 -28.65,29.79z" data-original="#000000"/> <path fill="#48566E" fill-rule="nonzero" d="M2013.62 1022.26c0,16.45 12.82,29.79 28.64,29.79 15.83,0 28.65,-13.34 28.65,-29.79 0,-16.45 -12.82,-29.79 -28.65,-29.79 -15.82,0 -28.64,13.33 -28.64,29.79z" data-original="#000000"/> <path fill="#48566E" fill-rule="nonzero" d="M2155.79 992.47c-15.82,0 -28.64,13.34 -28.64,29.79 0,16.45 12.82,29.79 28.64,29.79 15.82,0 28.65,-13.34 28.65,-29.79 0,-16.46 -12.83,-29.79 -28.65,-29.79z" data-original="#000000"/> </g> </g> </g> </g> </svg>