<svg xmlns="http://www.w3.org/2000/svg" xml:space="preserve" width="1677px" height="1931px" version="1.0" shape-rendering="geometricPrecision" text-rendering="geometricPrecision" image-rendering="optimizeQuality" fill-rule="evenodd" clip-rule="evenodd" viewBox="0 0 1677 1930.91" xmlns:xlink="http://www.w3.org/1999/xlink" xmlns:xodm="http://www.corel.com/coreldraw/odm/2003"> <g id="Слой_x0020_1"> <metadata id="CorelCorpID_0Corel-Layer"/> <ellipse fill="#E9ECEE" cx="667.11" cy="1244.93" rx="664.93" ry="682.43"/> <path fill="#FEFEFE" d="M460.01 266.43c21.09,-14.06 52.86,-30.72 112.75,-39.13 59.89,-8.41 147.9,-8.56 257.09,-7.48 109.18,1.08 239.53,3.39 304.7,4.55 65.18,1.16 65.18,1.16 66.92,48.77 1.75,47.61 5.24,142.84 14.27,191.75 9.04,48.92 23.62,51.52 66.32,51.78 42.71,0.26 113.53,-1.82 152.33,6.51 38.8,8.33 45.57,27.08 48.7,60.15 3.12,33.07 2.6,80.46 0.38,149.47 -2.21,69.01 -6.12,159.64 -8.2,287.23 -2.09,127.59 -2.34,292.15 -12.63,389.01 -10.28,96.86 -30.59,126.02 -77.46,143.99 -46.87,17.96 -120.3,24.73 -277.32,25.25 -157.01,0.53 -397.62,-5.2 -526.25,-15.88 -128.63,-10.67 -145.3,-26.3 -156.75,-55.98 -11.46,-29.69 -17.71,-73.43 -17.97,-276.28 -0.26,-202.84 5.47,-564.79 13.54,-751.49 8.07,-186.7 18.49,-198.16 39.58,-212.22z"/> <path fill="#CDE3F3" d="M621.5 195.74c-33.02,-17.32 -24.33,-48.57 -11.83,-72.25 12.5,-23.69 28.81,-39.82 47.68,-47.87 18.87,-8.06 40.3,-8.04 74.15,-11.95 33.85,-3.92 80.12,-11.76 172,-15.69 91.87,-3.92 229.36,-3.92 331.43,-4.96 102.08,-1.04 168.74,-3.13 220.81,0.79 52.08,3.91 89.58,13.82 114.89,31.01 25.32,17.18 38.46,41.65 48.35,76.79 9.9,35.14 16.55,80.97 19.88,273.66 3.32,192.69 3.32,532.24 -7.61,715.86 -10.94,183.62 -32.81,211.32 -59.37,230.07 -26.56,18.74 -57.81,28.55 -74.99,28.55 -17.19,0 -20.31,-9.81 -21.88,-158.23 -1.56,-148.42 -1.56,-435.46 -4.6,-583.15 -3.04,-147.69 -9.12,-156.02 -51.82,-204.19 -42.71,-48.16 -122.03,-136.15 -167.95,-184.06 -45.91,-47.92 -58.41,-55.75 -116.87,-57.71 -58.46,-1.96 -162.87,1.95 -225.5,4.16 -62.62,2.21 -83.45,2.73 -131.23,1.3 -47.79,-1.43 -122.52,-4.82 -155.54,-22.13z"/> <g id="_1959939219536"> <g> <g> <g> <path fill="#48566E" fill-rule="nonzero" d="M1494.95 8.63l-775.87 0c-96.2,0 -173.79,77.59 -175.34,173.8 -93.11,4.65 -166.04,82.24 -166.04,175.34l0 1075.36c0,96.21 79.14,175.34 175.35,175.34l775.87 0c96.21,0 173.79,-77.59 175.34,-173.79 93.11,-4.66 166.04,-82.25 166.04,-175.35l0 -1073.8c1.55,-97.76 -77.59,-176.9 -175.35,-176.9zm-48.1 1424.5c0,65.17 -52.76,117.93 -117.93,117.93l-775.87 0c-65.17,0 -116.38,-52.76 -116.38,-116.38l0 -1076.91c0,-65.17 52.76,-116.38 116.38,-116.38l626.9 0 0 270c0,15.52 12.41,29.49 29.48,29.49l237.42 0 0 892.25zm-207.93 -951.22l0 -193.97 172.24 193.97 -172.24 0zm266.9 895.35l0 -865.87c0,-3.1 -1.56,-7.76 -1.56,-10.86 0,-1.55 -1.55,-3.1 -1.55,-3.1 -1.55,-1.55 -1.55,-3.11 -3.1,-4.66l-268.45 -301.03c-1.55,-1.56 -4.66,-3.11 -7.76,-4.66 -1.55,0 -1.55,-1.55 -3.1,-1.55 -3.11,-1.55 -7.76,-3.11 -12.42,-3.11l-605.18 0c1.56,-63.62 52.76,-114.82 116.38,-114.82l775.87 0c65.18,0 116.38,52.76 116.38,116.38l0 1076.9 1.56 0c0,60.52 -48.11,111.73 -107.07,116.38z" data-original="#000000"/> <path fill="#48566E" fill-rule="nonzero" d="M588.74 540.88l259.14 0c15.52,0 29.48,-12.42 29.48,-29.49 0,-15.51 -12.41,-29.48 -29.48,-29.48l-259.14 0c-15.52,0 -29.49,12.41 -29.49,29.48 0.01,17.07 12.42,29.49 29.49,29.49z" data-original="#000000"/> <path fill="#48566E" fill-rule="nonzero" d="M846.33 1253.12l-257.59 0c-15.52,0 -29.49,12.42 -29.49,29.49 0,15.51 12.42,29.48 29.49,29.48l259.14 0c15.52,0 29.48,-12.41 29.48,-29.48 -1.55,-15.52 -13.96,-29.49 -31.03,-29.49z" data-original="#000000"/> <path fill="#48566E" fill-rule="nonzero" d="M559.26 706.91c0,15.52 12.41,29.49 29.48,29.49l692.07 0c15.52,0 29.49,-12.42 29.49,-29.49 0,-15.51 -13.97,-29.48 -29.49,-29.48l-692.07 0c-15.52,0 -29.48,12.41 -29.48,29.48z" data-original="#000000"/> <path fill="#48566E" fill-rule="nonzero" d="M1280.81 821.74l-692.07 0c-15.52,0 -29.49,12.41 -29.49,29.48 0,15.52 12.42,29.49 29.49,29.49l692.07 0c15.52,0 29.49,-12.42 29.49,-29.49 0,-15.51 -13.97,-29.48 -29.49,-29.48z" data-original="#000000"/> <path fill="#48566E" fill-rule="nonzero" d="M1280.81 967.6l-692.07 0c-15.52,0 -29.49,12.42 -29.49,29.49 0,15.51 12.42,29.48 29.49,29.48l692.07 0c15.52,0 29.49,-12.41 29.49,-29.48 0,-17.07 -13.97,-29.49 -29.49,-29.49z" data-original="#000000"/> <path fill="#48566E" fill-rule="nonzero" d="M1280.81 1111.92l-692.07 0c-15.52,0 -29.49,12.41 -29.49,29.48 0,15.52 12.42,29.48 29.49,29.48l692.07 0c15.52,0 29.49,-12.41 29.49,-29.48 0,-17.07 -13.97,-29.48 -29.49,-29.48z" data-original="#000000"/> </g> </g> </g> </g> <polygon fill="#CDE3F3" points="1238.92,287.94 1411.16,481.91 1238.92,481.91 "/> </g> </svg>