<?xml version="1.0" encoding="UTF-8"?>
<!DOCTYPE svg PUBLIC "-//W3C//DTD SVG 1.0//EN" "http://www.w3.org/TR/2001/REC-SVG-20010904/DTD/svg10.dtd">
<!-- Creator: CorelDRAW 2020 (64-Bit) -->
<svg xmlns="http://www.w3.org/2000/svg" xml:space="preserve" width="1677px" height="1931px" version="1.0" shape-rendering="geometricPrecision" text-rendering="geometricPrecision" image-rendering="optimizeQuality" fill-rule="evenodd" clip-rule="evenodd"
viewBox="0 0 1677 1930.91"
 xmlns:xlink="http://www.w3.org/1999/xlink"
 xmlns:xodm="http://www.corel.com/coreldraw/odm/2003">
 <g id="Слой_x0020_1">
  <metadata id="CorelCorpID_0Corel-Layer"/>
  <rect fill="#FEFEFE" x="608.15" y="61.29" width="1016.36" height="1312.6" rx="12.99" ry="12.99"/>
  <ellipse fill="#E9ECEE" cx="669.4" cy="1238.68" rx="664.93" ry="682.43"/>
  <rect fill="#FEFEFE" x="438.96" y="223.78" width="1018.54" height="1324.43" rx="13.51" ry="12.99"/>
  <g id="_2541937199488">
   <g>
    <g>
     <g>
      <path fill="#2D4979" fill-rule="nonzero" d="M1497.24 2.38l-775.87 0c-96.21,0 -173.79,77.59 -175.34,173.8 -93.11,4.65 -166.04,82.24 -166.04,175.34l0 1075.36c0,96.21 79.14,175.34 175.35,175.34l775.86 0c96.21,0 173.8,-77.58 175.35,-173.79 93.11,-4.66 166.04,-82.25 166.04,-175.35l0 -1073.8c1.55,-97.76 -77.59,-176.9 -175.35,-176.9zm-48.1 1424.5c0,65.17 -52.76,117.93 -117.94,117.93l-775.86 0c-65.18,0 -116.38,-52.76 -116.38,-116.38l0 -1076.91c0,-65.17 52.76,-116.38 116.38,-116.38l626.9 0 0 270c0,15.52 12.41,29.49 29.48,29.49l237.42 0 0 892.25zm-207.94 -951.22l0 -193.97 172.25 193.97 -172.25 0zm266.9 895.35l0 -865.87c0,-3.1 -1.55,-7.75 -1.55,-10.86 0,-1.55 -1.55,-3.1 -1.55,-3.1 -1.55,-1.55 -1.55,-3.11 -3.1,-4.66l-268.45 -301.03c-1.56,-1.56 -4.66,-3.11 -7.76,-4.66 -1.56,0 -1.56,-1.55 -3.11,-1.55 -3.1,-1.55 -7.76,-3.11 -12.41,-3.11l-605.18 0c1.55,-63.62 52.76,-114.82 116.38,-114.82l775.87 0c65.17,0 116.38,52.76 116.38,116.38l0 1076.9 1.55 0c0,60.52 -48.1,111.73 -107.07,116.38z" data-original="#000000"/>
      <path fill="#2D4979" fill-rule="nonzero" d="M591.03 534.63l259.14 0c15.51,0 29.48,-12.42 29.48,-29.49 0,-15.51 -12.41,-29.48 -29.48,-29.48l-259.14 0c-15.52,0 -29.49,12.41 -29.49,29.48 0,17.07 12.42,29.49 29.49,29.49z" data-original="#000000"/>
      <path fill="#2D4979" fill-rule="nonzero" d="M848.62 1246.87l-257.59 0c-15.52,0 -29.49,12.42 -29.49,29.49 0,15.51 12.42,29.48 29.49,29.48l259.14 0c15.51,0 29.48,-12.41 29.48,-29.48 -1.55,-15.52 -13.97,-29.49 -31.03,-29.49z" data-original="#000000"/>
      <path fill="#2D4979" fill-rule="nonzero" d="M561.54 700.66c0,15.52 12.42,29.49 29.49,29.49l692.07 0c15.52,0 29.48,-12.42 29.48,-29.49 0,-15.51 -13.96,-29.48 -29.48,-29.48l-692.07 0c-15.52,0 -29.49,12.41 -29.49,29.48z" data-original="#000000"/>
      <path fill="#2D4979" fill-rule="nonzero" d="M1283.1 815.49l-692.07 0c-15.52,0 -29.49,12.41 -29.49,29.48 0,15.52 12.42,29.49 29.49,29.49l692.07 0c15.52,0 29.48,-12.42 29.48,-29.49 0,-15.51 -13.96,-29.48 -29.48,-29.48z" data-original="#000000"/>
      <path fill="#2D4979" fill-rule="nonzero" d="M1283.1 961.35l-692.07 0c-15.52,0 -29.49,12.42 -29.49,29.49 0,15.51 12.42,29.48 29.49,29.48l692.07 0c15.52,0 29.48,-12.41 29.48,-29.48 0,-17.07 -13.96,-29.49 -29.48,-29.49z" data-original="#000000"/>
      <path fill="#2D4979" fill-rule="nonzero" d="M1283.1 1105.67l-692.07 0c-15.52,0 -29.49,12.41 -29.49,29.48 0,15.52 12.42,29.48 29.49,29.48l692.07 0c15.52,0 29.48,-12.41 29.48,-29.48 0,-17.07 -13.96,-29.48 -29.48,-29.48z" data-original="#000000"/>
     </g>
    </g>
   </g>
   <g>
   </g>
   <g>
   </g>
   <g>
   </g>
   <g>
   </g>
   <g>
   </g>
   <g>
   </g>
   <g>
   </g>
   <g>
   </g>
   <g>
   </g>
   <g>
   </g>
   <g>
   </g>
   <g>
   </g>
   <g>
   </g>
   <g>
   </g>
   <g>
   </g>
  </g>
  <polygon fill="#C4E1F5" points="1241.2,281.69 1413.45,475.66 1241.2,475.66 "/>
 </g>
</svg>
