<svg xmlns="http://www.w3.org/2000/svg" xml:space="preserve" width="1677px" height="1931px" version="1.0" shape-rendering="geometricPrecision" text-rendering="geometricPrecision" image-rendering="optimizeQuality" fill-rule="evenodd" clip-rule="evenodd" viewBox="0 0 1677 1930.91" xmlns:xlink="http://www.w3.org/1999/xlink" xmlns:xodm="http://www.corel.com/coreldraw/odm/2003"> <g id="Слой_x0020_1"> <metadata id="CorelCorpID_0Corel-Layer"/> <rect fill="#FEFEFE" x="605.86" y="67.54" width="1016.36" height="1312.6" rx="12.99" ry="12.99"/> <ellipse fill="#E9ECEE" cx="667.11" cy="1244.93" rx="664.93" ry="682.43"/> <rect fill="#FEFEFE" x="436.67" y="230.03" width="1018.54" height="1324.43" rx="13.51" ry="12.99"/> <g id="_2517692073440"> <g> <g> <g> <path fill="#48566E" fill-rule="nonzero" d="M1494.95 8.63l-775.87 0c-96.2,0 -173.79,77.59 -175.34,173.8 -93.11,4.65 -166.04,82.24 -166.04,175.34l0 1075.36c0,96.21 79.14,175.34 175.35,175.34l775.87 0c96.21,0 173.79,-77.59 175.34,-173.79 93.11,-4.66 166.04,-82.25 166.04,-175.35l0 -1073.8c1.55,-97.76 -77.59,-176.9 -175.35,-176.9zm-48.1 1424.5c0,65.17 -52.76,117.93 -117.93,117.93l-775.87 0c-65.17,0 -116.38,-52.76 -116.38,-116.38l0 -1076.91c0,-65.17 52.76,-116.38 116.38,-116.38l626.9 0 0 270c0,15.52 12.41,29.49 29.48,29.49l237.42 0 0 892.25zm-207.93 -951.22l0 -193.97 172.24 193.97 -172.24 0zm266.9 895.35l0 -865.87c0,-3.1 -1.56,-7.76 -1.56,-10.86 0,-1.55 -1.55,-3.1 -1.55,-3.1 -1.55,-1.55 -1.55,-3.11 -3.1,-4.66l-268.45 -301.03c-1.55,-1.56 -4.66,-3.11 -7.76,-4.66 -1.55,0 -1.55,-1.55 -3.1,-1.55 -3.11,-1.55 -7.76,-3.11 -12.42,-3.11l-605.18 0c1.56,-63.62 52.76,-114.82 116.38,-114.82l775.87 0c65.18,0 116.38,52.76 116.38,116.38l0 1076.9 1.56 0c0,60.52 -48.11,111.73 -107.07,116.38z" data-original="#000000"/> <path fill="#48566E" fill-rule="nonzero" d="M588.74 540.88l259.14 0c15.52,0 29.48,-12.42 29.48,-29.49 0,-15.51 -12.41,-29.48 -29.48,-29.48l-259.14 0c-15.52,0 -29.49,12.41 -29.49,29.48 0.01,17.07 12.42,29.49 29.49,29.49z" data-original="#000000"/> <path fill="#48566E" fill-rule="nonzero" d="M846.33 1253.12l-257.59 0c-15.52,0 -29.49,12.42 -29.49,29.49 0,15.51 12.42,29.48 29.49,29.48l259.14 0c15.52,0 29.48,-12.41 29.48,-29.48 -1.55,-15.52 -13.96,-29.49 -31.03,-29.49z" data-original="#000000"/> <path fill="#48566E" fill-rule="nonzero" d="M559.26 706.91c0,15.52 12.41,29.49 29.48,29.49l692.07 0c15.52,0 29.49,-12.42 29.49,-29.49 0,-15.51 -13.97,-29.48 -29.49,-29.48l-692.07 0c-15.52,0 -29.48,12.41 -29.48,29.48z" data-original="#000000"/> <path fill="#48566E" fill-rule="nonzero" d="M1280.81 821.74l-692.07 0c-15.52,0 -29.49,12.41 -29.49,29.48 0,15.52 12.42,29.49 29.49,29.49l692.07 0c15.52,0 29.49,-12.42 29.49,-29.49 0,-15.51 -13.97,-29.48 -29.49,-29.48z" data-original="#000000"/> <path fill="#48566E" fill-rule="nonzero" d="M1280.81 967.6l-692.07 0c-15.52,0 -29.49,12.42 -29.49,29.49 0,15.51 12.42,29.48 29.49,29.48l692.07 0c15.52,0 29.49,-12.41 29.49,-29.48 0,-17.07 -13.97,-29.49 -29.49,-29.49z" data-original="#000000"/> <path fill="#48566E" fill-rule="nonzero" d="M1280.81 1111.92l-692.07 0c-15.52,0 -29.49,12.41 -29.49,29.48 0,15.52 12.42,29.48 29.49,29.48l692.07 0c15.52,0 29.49,-12.41 29.49,-29.48 0,-17.07 -13.97,-29.48 -29.49,-29.48z" data-original="#000000"/> </g> </g> </g> <g> </g> <g> </g> <g> </g> <g> </g> <g> </g> <g> </g> <g> </g> <g> </g> <g> </g> <g> </g> <g> </g> <g> </g> <g> </g> <g> </g> <g> </g> </g> <polygon fill="#C4E1F5" points="1238.92,287.94 1411.16,481.91 1238.92,481.91 "/> </g> </svg>