<svg xmlns="http://www.w3.org/2000/svg" xml:space="preserve" width="437px" height="402px" version="1.0" shape-rendering="geometricPrecision" text-rendering="geometricPrecision" image-rendering="optimizeQuality" fill-rule="evenodd" clip-rule="evenodd" viewBox="0 0 437 401.57" xmlns:xlink="http://www.w3.org/1999/xlink" xmlns:xodm="http://www.corel.com/coreldraw/odm/2003"> <g id="Слой_x0020_1"> <metadata id="CorelCorpID_0Corel-Layer"/> <circle fill="#E9ECEE" cx="146.01" cy="251.23" r="145.62"/> <g id="_1522023137744"> <path fill="white" fill-rule="nonzero" d="M250.92 198.28l15.65 -15.65c1.54,-1.53 1.54,-4.02 0,-5.56l-11.01 -11.02c-1.32,-1.31 -1.52,-3.36 -0.51,-4.92 5.63,-8.73 9.5,-18.27 11.63,-28.11 0.39,-1.81 1.98,-3.12 3.84,-3.12l15.59 0c2.17,0 3.94,-1.76 3.94,-3.93l0 -22.13c0,-2.18 -1.76,-3.94 -3.94,-3.94l-15.59 0c-1.86,0 -3.45,-1.3 -3.84,-3.12 -2.13,-9.84 -6,-19.37 -11.63,-28.11 -1.01,-1.56 -0.81,-3.61 0.51,-4.92l11.01 -11.02c1.54,-1.53 1.54,-4.02 0,-5.56l-15.64 -15.65c-1.54,-1.53 -4.03,-1.53 -5.57,0l-11.01 11.02c-1.32,1.31 -3.36,1.52 -4.93,0.51 -8.73,-5.63 -18.27,-9.51 -28.1,-11.63 -1.82,-0.39 -3.13,-1.99 -3.13,-3.85l0 -15.59c0,-2.17 -1.76,-3.93 -3.93,-3.93l-22.13 0c-2.17,0 -3.93,1.76 -3.93,3.93l0 15.59c0,1.86 -1.31,3.46 -3.13,3.85 -9.83,2.12 -19.37,6 -28.1,11.63 -1.57,1.01 -3.61,0.8 -4.93,-0.51l-11.02 -11.02c-1.53,-1.53 -4.02,-1.53 -5.56,0l-15.65 15.65c-1.53,1.54 -1.53,4.03 0,5.56l11.02 11.02c1.31,1.31 1.52,3.36 0.51,4.92 -5.63,8.73 -9.51,18.27 -11.63,28.11 -0.39,1.82 -1.99,3.12 -3.85,3.12l-15.59 0c-2.17,0 -3.93,1.76 -3.93,3.93l0 22.14c0,2.17 1.76,3.93 3.93,3.93l15.59 0c1.86,0 3.46,1.3 3.85,3.12 2.13,9.84 6,19.38 11.63,28.11 1.01,1.56 0.8,3.61 -0.51,4.92l-11.02 11.02c-1.53,1.53 -1.53,4.02 0,5.56l15.65 15.65c1.54,1.54 4.03,1.54 5.56,0l11.02 -11.02c1.31,-1.31 3.36,-1.51 4.92,-0.51 8.74,5.63 18.27,9.51 28.11,11.63 1.82,0.4 3.12,1.99 3.12,3.85l0 15.59c0,2.17 1.76,3.93 3.94,3.93l22.13 0c2.17,0 3.93,-1.76 3.93,-3.93l0 -15.59c0,-1.86 1.31,-3.45 3.12,-3.85 9.84,-2.12 19.38,-6 28.11,-11.63 1.56,-1 3.61,-0.8 4.93,0.51l11.01 11.02c1.54,1.54 4.03,1.54 5.56,0l0 0z" data-original="#596c76"/> </g> <g id="_1522023134912"> <path fill="#DFDFDF" fill-rule="nonzero" d="M218.18 187.02l3.59 4.12c-6.54,3.31 -13.42,5.73 -20.45,7.25 -1.82,0.38 -3.13,1.98 -3.13,3.84l0 15.59c0,2.17 -1.76,3.93 -3.93,3.93l-13.05 0c0.64,-0.7 1.03,-1.63 1.03,-2.66l0 -19.79c0,-1.89 1.32,-3.5 3.16,-3.89 9.95,-2.15 18.97,-3.21 27.8,-8.91 1.58,-1.02 3.65,-0.8 4.98,0.52l0 0z" data-original="#465a61"/> </g> <g id="_1522023131360"> <path fill="#DFDFDF" fill-rule="nonzero" d="M269.75 99.82l-14.35 0c-1.88,0 -3.49,-1.31 -3.89,-3.15 -2.15,-9.96 -6.07,-19.6 -11.76,-28.43 -1.03,-1.58 -0.82,-3.65 0.51,-4.98l11.14 -11.14c1.56,-1.56 1.56,-4.07 0,-5.63l-10.51 -10.5 4.47 -4.47c1.54,-1.53 4.03,-1.53 5.57,0l15.64 15.65c1.54,1.54 1.54,4.02 0,5.56l-11.01 11.02c-1.31,1.31 -1.52,3.36 -0.51,4.92 5.63,8.74 9.51,18.27 11.62,28.11 0.34,1.56 1.56,2.74 3.08,3.04l0 0z" data-original="#465a61"/> </g> <g id="_1522023131168"> <circle fill="#E3E8ED" fill-rule="nonzero" cx="183.19" cy="114.9" r="34.99" data-original="#fdf6ec"/> </g> <g id="_1522023132704"> <path fill="#DFDFDF" fill-rule="nonzero" d="M207.93 139.64c-13.11,13.11 -34.02,13.64 -47.77,1.59 11.84,3.41 25.11,0.45 34.44,-8.88 13.66,-13.66 13.66,-35.81 0,-49.48 -0.56,-0.55 -1.13,-1.08 -1.71,-1.59 5.51,1.59 10.7,4.54 15.04,8.88 13.67,13.66 13.67,35.82 0,49.48z" data-original="#fef1da"/> </g> <g id="_1522023130208"> <path fill="white" fill-rule="nonzero" d="M380.47 331.56l19.36 -19.36c1.91,-1.9 1.91,-4.99 0,-6.89l-13.63 -13.63c-1.62,-1.62 -1.87,-4.16 -0.63,-6.09 6.97,-10.8 11.76,-22.6 14.39,-34.78 0.49,-2.25 2.46,-3.86 4.76,-3.86l19.29 0c2.69,0 4.87,-2.18 4.87,-4.87l0 -27.38c0,-2.69 -2.18,-4.87 -4.87,-4.87l-19.29 0c-2.3,0 -4.27,-1.61 -4.76,-3.86 -2.63,-12.17 -7.42,-23.97 -14.39,-34.78 -1.25,-1.93 -0.99,-4.46 0.63,-6.09l13.63 -13.63c1.91,-1.9 1.91,-4.98 0,-6.88l-19.36 -19.36c-1.9,-1.91 -4.98,-1.91 -6.88,0l-13.63 13.62c-1.63,1.63 -4.16,1.88 -6.09,0.64 -10.81,-6.97 -22.61,-11.76 -34.78,-14.39 -2.25,-0.49 -3.86,-2.46 -3.87,-4.76l0 -19.29c0,-2.69 -2.17,-4.87 -4.86,-4.87l-27.38 0c-2.69,0 -4.87,2.18 -4.87,4.87l0 19.29c0,2.3 -1.62,4.27 -3.87,4.76 -12.17,2.63 -23.97,7.42 -34.77,14.39 -1.94,1.24 -4.47,0.99 -6.1,-0.64l-13.63 -13.62c-1.9,-1.91 -4.98,-1.91 -6.88,0l-19.36 19.36c-1.9,1.9 -1.9,4.98 0,6.88l13.63 13.63c1.63,1.63 1.88,4.16 0.63,6.09 -6.96,10.81 -11.76,22.61 -14.39,34.78 -0.49,2.25 -2.46,3.86 -4.76,3.86l-19.29 0c-2.68,0 -4.86,2.18 -4.86,4.87l0 27.38c0,2.69 2.18,4.87 4.86,4.87l19.29 0c2.3,0 4.27,1.62 4.76,3.86 2.63,12.18 7.43,23.98 14.39,34.78 1.25,1.93 1,4.47 -0.63,6.09l-13.63 13.63c-1.9,1.9 -1.9,4.99 0,6.89l19.36 19.36c1.9,1.9 4.98,1.9 6.88,0l13.63 -13.63c1.63,-1.63 4.16,-1.88 6.1,-0.63 10.8,6.96 22.6,11.76 34.77,14.39 2.25,0.48 3.87,2.45 3.87,4.76l0 19.28c0,2.69 2.18,4.87 4.86,4.87l27.39 0c2.69,0 4.86,-2.18 4.86,-4.86l0 -19.29c0,-2.31 1.62,-4.28 3.87,-4.76 12.17,-2.63 23.97,-7.43 34.78,-14.39 1.93,-1.25 4.46,-1 6.09,0.63l13.63 13.63c1.9,1.9 4.98,1.9 6.88,0l0 0z" data-original="#9facba"/> </g> <g id="_1522023125120"> <path fill="#DFDFDF" fill-rule="nonzero" d="M385.57 285.59c-1.24,1.93 -0.99,4.47 0.64,6.09l13.62 13.63c1.91,1.9 1.91,4.98 0,6.89l-19.36 19.36c-1.9,1.9 -4.98,1.9 -6.88,0l-4.69 -4.69 15.57 -15.57c1.9,-1.91 1.9,-4.99 0,-6.89l-13.63 -13.63c-1.62,-1.63 -1.88,-4.16 -0.63,-6.09 6.96,-10.81 11.76,-20.33 14.39,-32.51 0.49,-2.24 2.46,-3.86 4.76,-3.86l11.99 0c-0.69,0.66 -1.17,1.52 -1.39,2.5 -2.63,12.17 -7.42,23.97 -14.39,34.77l0 0z" data-original="#8d9ca8"/> </g> <g id="_1522023124784"> <path fill="#DFDFDF" fill-rule="nonzero" d="M401.91 208.93l-12.55 0c-2.3,0 -4.27,-1.61 -4.76,-3.87 -2.63,-12.17 -7.43,-23.97 -14.39,-34.77 -1.24,-1.93 -0.99,-4.47 0.63,-6.09l13.63 -13.64c1.9,-1.9 1.9,-4.98 0,-6.88l-14.67 -14.67 3.79 -3.79c1.9,-1.9 4.98,-1.9 6.88,0l19.36 19.36c1.91,1.9 1.91,4.99 0,6.89l-13.62 13.63c-1.63,1.63 -1.88,4.16 -0.64,6.09 6.97,10.81 11.76,22.61 14.39,34.78 0.27,1.23 0.98,2.27 1.95,2.96l0 0z" data-original="#8d9ca8"/> </g> <g id="_1522023126320"> <path fill="#DFDFDF" fill-rule="nonzero" d="M428.88 214.7l0 27.38c0,2.69 -2.18,4.87 -4.87,4.87l-11.99 0c0.92,-0.88 1.49,-2.12 1.49,-3.49l0 -29.66c0,-1.63 -0.81,-3.09 -2.04,-3.96l12.54 0c2.69,-0.01 4.87,2.17 4.87,4.86z" data-original="#8d9ca8"/> </g> <g id="_1522023121520"> <circle fill="white" fill-rule="nonzero" cx="296.67" cy="228.39" r="62.94" data-original="#596c76"/> </g> <g id="_1522023119984"> <path fill="#DFDFDF" fill-rule="nonzero" d="M341.17 272.89c-19.29,19.3 -47.99,23.45 -71.33,12.45 20.19,4.35 42.1,-1.32 57.8,-17.01 24.58,-24.58 24.58,-64.43 0,-89.01 -5.29,-5.29 -11.29,-9.45 -17.69,-12.45 11.45,2.45 22.33,8.12 31.22,17.01 24.58,24.59 24.58,64.43 0,89.01l0 0z" data-original="#465a61"/> </g> <g id="_1522023116048"> <circle fill="#E3E8ED" fill-rule="nonzero" cx="296.67" cy="228.39" r="36.14" data-original="#fdf6ec"/> </g> <g id="_1522023112208"> <path fill="#DFDFDF" fill-rule="nonzero" d="M322.23 253.95c-14.12,14.12 -37.01,14.12 -51.12,0 -0.44,-0.45 -0.87,-0.89 -1.29,-1.35 13.29,5.94 29.43,3.47 40.34,-7.44 13.67,-13.67 14.1,-35.56 1.3,-49.75 3.9,1.75 7.56,4.22 10.77,7.43 14.11,14.11 14.11,36.99 0,51.11z" data-original="#fef1da"/> </g> <g id="_1522023114848"> <path fill="#48566E" fill-rule="nonzero" d="M296.67 269.83c10.62,0 21.23,-4.04 29.32,-12.12 16.16,-16.17 16.16,-42.47 0,-58.64 -16.17,-16.16 -42.47,-16.16 -58.64,0 -16.17,16.17 -16.17,42.47 0,58.64 8.08,8.08 18.7,12.12 29.32,12.12zm-21.8 -63.24c6.01,-6.01 13.9,-9.01 21.8,-9.01 7.89,0 15.79,3 21.79,9.01 12.02,12.02 12.02,31.58 0,43.6 -12.01,12.02 -31.57,12.02 -43.59,0 -12.02,-12.02 -12.02,-31.58 0,-43.6l0 0z" data-original="#000000"/> <path fill="#48566E" fill-rule="nonzero" d="M248.4 180.13c-19.78,19.78 -25.5,49.21 -14.57,74.96 1.15,2.7 4.27,3.96 6.97,2.81 2.71,-1.14 3.97,-4.26 2.82,-6.97 -9.23,-21.74 -4.4,-46.58 12.3,-63.28 22.47,-22.47 59.03,-22.47 81.49,0 22.47,22.46 22.47,59.02 0,81.49 -10.79,10.79 -25.14,16.78 -40.4,16.87 -0.12,0 -0.23,0 -0.35,0 -15.12,0 -29.39,-5.8 -40.21,-16.36 -2.11,-2.05 -5.47,-2.01 -7.52,0.09 -2.05,2.11 -2.01,5.47 0.09,7.52 12.83,12.51 29.73,19.39 47.64,19.39 0.14,0 0.27,0 0.41,0 18.08,-0.11 35.08,-7.21 47.86,-19.99 26.62,-26.62 26.62,-69.92 0,-96.53 -26.61,-26.62 -69.91,-26.62 -96.53,0l0 0z" data-original="#000000"/> <path fill="#48566E" fill-rule="nonzero" d="M424.01 204.52l-18.92 0c-2.81,-12.83 -7.81,-24.91 -14.86,-35.92l13.36 -13.37c1.93,-1.92 2.99,-4.48 2.99,-7.2 0,-2.72 -1.06,-5.28 -2.99,-7.2l-19.36 -19.37c-1.92,-1.92 -4.48,-2.98 -7.2,-2.98 -2.72,0 -5.28,1.06 -7.2,2.98l-13.37 13.37c-11.02,-7.05 -23.1,-12.05 -35.92,-14.86l0 -18.92c0,-5.62 -4.57,-10.19 -10.18,-10.19l-27.38 0c-3.17,0 -6,1.45 -7.87,3.72l-3.47 0c-2.27,-9.91 -6.14,-19.27 -11.53,-27.86l10.22 -10.23c3.61,-3.6 3.61,-9.47 0,-13.08l-15.65 -15.65c-1.74,-1.75 -4.07,-2.71 -6.54,-2.71 -2.47,0 -4.79,0.96 -6.54,2.71l-10.23 10.23c-8.58,-5.39 -17.95,-9.27 -27.86,-11.53l0 -14.48c0,-5.1 -4.15,-9.25 -9.25,-9.25l-22.13 0c-5.1,0 -9.25,4.15 -9.25,9.25l0 14.48c-9.92,2.26 -19.28,6.14 -27.87,11.53l-10.23 -10.23c-1.74,-1.75 -4.07,-2.71 -6.54,-2.71 -2.47,0 -4.79,0.96 -6.54,2.71l-15.65 15.65c-3.6,3.61 -3.6,9.48 0,13.08l10.23 10.23c-5.39,8.59 -9.26,17.95 -11.53,27.87l-14.48 0c-5.1,0 -9.25,4.14 -9.25,9.25l0 22.13c0,5.1 4.15,9.25 9.25,9.25l14.48 0c2.27,9.91 6.14,19.28 11.53,27.86l-10.23 10.23c-3.6,3.61 -3.6,9.48 0,13.08l15.65 15.65c3.61,3.61 9.48,3.61 13.08,0l10.23 -10.23c8.59,5.4 17.95,9.27 27.87,11.54l0 3.48c-2.28,1.86 -3.74,4.7 -3.74,7.87l0 27.39c0,5.61 4.57,10.18 10.18,10.18l18.93 0c2.81,12.82 7.8,24.9 14.86,35.92l-13.37 13.37c-1.92,1.92 -2.98,4.48 -2.98,7.2 0,2.72 1.06,5.28 2.98,7.2l19.36 19.36c1.93,1.92 4.48,2.98 7.2,2.98 2.72,0 5.28,-1.06 7.21,-2.98l13.36 -13.37c11.02,7.06 23.1,12.06 35.92,14.86l0 18.93c0,5.61 4.57,10.18 10.19,10.18l27.38 0c5.61,0 10.18,-4.57 10.18,-10.18l0 -18.93c12.82,-2.81 24.9,-7.81 35.92,-14.86l13.37 13.37c1.92,1.92 4.48,2.98 7.2,2.98 2.72,0 5.28,-1.06 7.2,-2.98l19.36 -19.36c1.93,-1.93 2.99,-4.48 2.99,-7.21 0,-2.72 -1.06,-5.27 -2.99,-7.2l-13.37 -13.37c7.06,-11.01 12.06,-23.09 14.87,-35.91l18.92 0c5.62,0 10.18,-4.57 10.18,-10.19l0 -27.38c0,-5.62 -4.56,-10.18 -10.18,-10.18zm-257.82 -11.33c-9.41,-2.04 -18.28,-5.71 -26.35,-10.91 -3.64,-2.35 -8.5,-1.83 -11.56,1.23l-10.04 10.03 -13.69 -13.69 10.04 -10.04c3.06,-3.05 3.57,-7.92 1.22,-11.56 -5.2,-8.07 -8.87,-16.93 -10.9,-26.35 -0.92,-4.24 -4.72,-7.32 -9.05,-7.32l-14.2 0 0 -19.36 14.2 0c4.33,0 8.13,-3.08 9.05,-7.32 2.03,-9.42 5.7,-18.28 10.9,-26.35 2.35,-3.64 1.84,-8.51 -1.22,-11.56l-10.04 -10.04 13.69 -13.69 10.04 10.04c3.06,3.05 7.92,3.57 11.57,1.22 8.06,-5.2 16.93,-8.87 26.34,-10.91 4.24,-0.91 7.32,-4.71 7.32,-9.04l0 -14.2 19.36 0 0 14.2c0,4.33 3.08,8.13 7.32,9.04 9.42,2.04 18.29,5.71 26.35,10.91 3.65,2.35 8.51,1.84 11.57,-1.22l10.03 -10.04 13.7 13.69 -10.04 10.04c-3.06,3.05 -3.57,7.92 -1.22,11.56 5.2,8.07 8.87,16.94 10.9,26.35 0.92,4.24 4.72,7.32 9.04,7.32l2.27 0 0 14.75c-12.82,2.81 -24.9,7.81 -35.91,14.86l-13.37 -13.37c-0.16,-0.15 -0.33,-0.3 -0.5,-0.45 1.87,-12.25 -1.9,-25.19 -11.32,-34.61 -11.13,-11.14 -27.87,-14.77 -42.62,-9.26 -2.75,1.03 -4.15,4.1 -3.12,6.85 1.02,2.75 4.09,4.15 6.84,3.12 10.86,-4.06 23.18,-1.39 31.38,6.81 6.89,6.88 9.66,16.33 8.35,25.29 -1.26,0.51 -2.42,1.26 -3.42,2.25l-19.36 19.37c-0.99,0.99 -1.75,2.15 -2.26,3.42 -1.4,0.21 -2.84,0.32 -4.28,0.32 -7.93,0 -15.38,-3.09 -20.98,-8.69 -9.37,-9.36 -11.39,-23.96 -4.91,-35.49 1.43,-2.56 0.52,-5.8 -2.04,-7.24 -2.56,-1.44 -5.8,-0.53 -7.24,2.03 -8.79,15.68 -6.05,35.5 6.66,48.22 7.86,7.86 18.18,11.79 28.5,11.79 2.04,0 4.07,-0.16 6.09,-0.47 0.15,0.17 0.3,0.35 0.46,0.51l13.37 13.37c-7.05,11.01 -12.05,23.1 -14.86,35.92l-14.74 0 0 -2.29c0,-4.32 -3.08,-8.13 -7.32,-9.04l0 0zm257.37 48.44l-18.84 0c-4.76,0 -8.94,3.39 -9.95,8.06 -2.55,11.8 -7.15,22.91 -13.67,33.02 -2.58,4.01 -2.02,9.37 1.34,12.73l13.32 13.31 -18.73 18.73 -13.31 -13.31c-3.36,-3.37 -8.72,-3.93 -12.73,-1.35 -10.11,6.52 -21.22,11.12 -33.02,13.67 -4.67,1.01 -8.06,5.19 -8.06,9.95l0 18.84 -26.48 0 0 -18.84c0,-4.76 -3.39,-8.94 -8.06,-9.95 -11.8,-2.55 -22.91,-7.15 -33.02,-13.67 -4.01,-2.58 -9.37,-2.02 -12.73,1.35l-13.31 13.31 -18.73 -18.73 13.31 -13.31c3.37,-3.36 3.93,-8.72 1.34,-12.73 -6.51,-10.11 -11.11,-21.22 -13.66,-33.02 -1.01,-4.67 -5.2,-8.06 -9.95,-8.06l-18.84 0 0 -26.48 18.84 0c4.75,0 8.94,-3.39 9.95,-8.06 2.55,-11.8 7.15,-22.91 13.66,-33.02 2.59,-4.01 2.03,-9.37 -1.34,-12.73l-13.31 -13.31 18.73 -18.73 13.31 13.31c3.36,3.37 8.72,3.93 12.73,1.35 10.11,-6.52 21.22,-11.12 33.02,-13.67 4.67,-1.01 8.06,-5.19 8.06,-9.95l0 -18.84 26.48 0 0 18.84c0,4.76 3.39,8.94 8.06,9.95 11.8,2.55 22.91,7.15 33.02,13.66 4.01,2.59 9.36,2.03 12.73,-1.34l13.31 -13.31 18.73 18.72 -13.32 13.32c-3.36,3.36 -3.93,8.72 -1.34,12.73 6.52,10.11 11.12,21.22 13.66,33.02 1.01,4.67 5.2,8.06 9.96,8.06l18.84 0 0 26.48 0 0z" data-original="#000000"/> </g> </g> </svg>