<svg xmlns="http://www.w3.org/2000/svg" xml:space="preserve" width="372px" height="402px" version="1.0" shape-rendering="geometricPrecision" text-rendering="geometricPrecision" image-rendering="optimizeQuality" fill-rule="evenodd" clip-rule="evenodd" viewBox="0 0 372 401.52" xmlns:xlink="http://www.w3.org/1999/xlink" xmlns:xodm="http://www.corel.com/coreldraw/odm/2003"> <g id="Слой_x0020_1"> <metadata id="CorelCorpID_0Corel-Layer"/> <circle fill="#E9ECEE" cx="146.59" cy="251.21" r="145.61"/> <path fill="white" fill-rule="nonzero" d="M204.62 291.88c0,33.89 27.48,61.36 61.37,61.36l92.49 0 0 -150.84c0.01,-13.44 -4.56,-26.49 -12.96,-36.98l-58.05 -72.55 -82.85 0 0 199.01z" data-original="#fec9a3"/> <path fill="#FCFEFF" fill-rule="nonzero" d="M145.45 10.02l118.35 0c13.07,0 23.67,10.6 23.67,23.67l0 213.03c0,13.08 -10.6,23.67 -23.67,23.67l-118.35 0c-13.07,0 -23.67,-10.59 -23.67,-23.67l0 -213.03c0,-13.07 10.6,-23.67 23.67,-23.67z" data-original="#4398d1"/> <path fill="#C6DAE9" fill-rule="nonzero" d="M121.78 239.15l0 7.57c0,13.08 10.6,23.67 23.67,23.67l118.35 0c13.07,0 23.67,-10.59 23.67,-23.67l0 -174.39c-35.2,72.45 -93.49,131.13 -165.69,166.82z" data-original="#3e8cc7"/> <rect fill="white" fill-rule="nonzero" x="204.62" y="270.39" width="65.09" height="17.75" data-original="#f7bb8f"/> <rect fill="white" fill-rule="nonzero" x="222.38" y="10.02" width="29.59" height="260.37" data-original="#87ced9"/> <g id="_1522162670752"> <rect fill="#126099" fill-rule="nonzero" x="145.45" y="33.69" width="11.84" height="76.93" data-original="#126099"/> <rect fill="#126099" fill-rule="nonzero" x="175.04" y="33.69" width="11.84" height="47.34" data-original="#126099"/> </g> <rect fill="white" fill-rule="nonzero" x="151.36" y="205.3" width="35.51" height="35.51" data-original="#d9d9d9"/> <path fill="white" fill-rule="nonzero" d="M311.14 228.97l-79.53 -84.5c-8.15,-8.62 -21.74,-9.01 -30.37,-0.87 -0.14,0.13 -0.27,0.26 -0.4,0.39l0 0c-7.88,7.9 -8.42,20.52 -1.25,29.06l52.37 61.84 0 20.47c0,30.42 18.87,57.63 47.35,68.29l11.83 0 0 -94.68z" data-original="#fec9a3"/> <path fill="#48566E" fill-rule="nonzero" d="M263.8 4.1l-118.35 0c-16.34,0 -29.59,13.25 -29.59,29.59l0 213.03c0,16.34 13.25,29.59 29.59,29.59l53.26 0 0 15.57c0.03,37.14 30.13,67.24 67.28,67.28l92.49 0c3.27,0 5.92,-2.65 5.92,-5.92l0 -150.84c-0.03,-14.77 -5.06,-29.1 -14.26,-40.65l-56.75 -70.95 0 -57.11c0,-16.34 -13.25,-29.59 -29.59,-29.59zm0 11.84c9.8,0 17.75,7.94 17.75,17.75l0 155.22 -23.67 -25.03 0 -147.94 5.92 0zm-17.75 135.21l-10.12 -10.94c-2.23,-2.21 -4.81,-4.03 -7.64,-5.39l0 -118.88 17.76 0 0 135.21zm-118.35 95.57l0 -213.03c0,-9.81 7.94,-17.75 17.75,-17.75l71.01 0 0 115.86 0 0c-7.42,-0.24 -14.6,2.66 -19.77,7.99 -10,10.1 -10.67,26.15 -1.53,37.05l21.3 25.27 0 62.37 -71.01 0c-9.81,0 -17.75,-7.95 -17.75,-17.76zm118.94 17.76l-18.35 0 0 -48.41 17.76 21.01 0 18.28c0.01,3.05 0.21,6.09 0.59,9.12zm94.09 -95.33c7.61,9.42 11.79,21.14 11.83,33.25l0 144.92 -86.57 0c-30.61,-0.03 -55.41,-24.83 -55.45,-55.44l0 -15.57 38.46 0c6.73,24.32 24.64,43.97 48.23,52.91l4.15 -11.13c-26.12,-9.85 -43.43,-34.81 -43.5,-62.73l0 -20.47c0,-1.41 -0.5,-2.78 -1.42,-3.85l-52.31 -61.84c-5.2,-6.17 -4.81,-15.29 0.89,-21 2.97,-3.1 7.13,-4.76 11.42,-4.56 4.21,0.03 8.22,1.8 11.06,4.91l79.3 84.51 8.64 -8.17 -22.07 -23.67 0 -91.49 47.34 59.42z" data-original="#000000"/> <rect fill="#48566E" fill-rule="nonzero" x="145.45" y="33.69" width="11.84" height="76.93" data-original="#000000"/> <rect fill="#48566E" fill-rule="nonzero" x="175.04" y="33.69" width="11.84" height="47.34" data-original="#000000"/> <path fill="#48566E" fill-rule="nonzero" d="M186.87 199.38l-35.5 0c-3.27,0 -5.92,2.65 -5.92,5.92l0 35.51c0,3.26 2.65,5.91 5.92,5.91l35.5 0c3.27,0 5.92,-2.65 5.92,-5.91l0 -35.51c0,-3.27 -2.65,-5.92 -5.92,-5.92zm-5.92 35.51l-23.67 0 0 -23.67 23.67 0 0 23.67z" data-original="#000000"/> <g id="_1522162667584"> </g> <g id="_1522162667200"> </g> <g id="_1522162669312"> </g> <g id="_1522162667392"> </g> <g id="_1522162667344"> </g> <g id="_1522162668256"> </g> <g id="_1522162667056"> </g> <g id="_1522162669552"> </g> <g id="_1522162664848"> </g> <g id="_1522162666000"> </g> <g id="_1522162664656"> </g> <g id="_1522162665328"> </g> <g id="_1522162665520"> </g> <g id="_1522162664944"> </g> <g id="_1522162665472"> </g> </g> </svg>