<svg xmlns="http://www.w3.org/2000/svg" xml:space="preserve" width="1547px" height="1547px" version="1.0" shape-rendering="geometricPrecision" text-rendering="geometricPrecision" image-rendering="optimizeQuality" fill-rule="evenodd" clip-rule="evenodd" viewBox="0 0 1547 1547" xmlns:xlink="http://www.w3.org/1999/xlink" xmlns:xodm="http://www.corel.com/coreldraw/odm/2003"> <g id="Слой_x0020_1"> <metadata id="CorelCorpID_0Corel-Layer"/> <path fill="#E9ECEE" d="M574.78 394.17c317.54,0 574.99,257.42 574.99,574.99 0,317.54 -257.45,575 -574.99,575 -159.19,0 -303.26,-64.7 -407.37,-169.2 -103.6,-104 -167.63,-247.44 -167.63,-405.8 0,-317.57 257.46,-574.99 575,-574.99z"/> <path fill="#E3E8ED" fill-rule="nonzero" d="M232.62 233.76c0,-116.5 95.24,-210.75 212.13,-209.05 113.18,1.66 205.26,94.49 205.97,207.71 0.4,63.4 -27.42,120.29 -71.64,158.87 -4.7,4.1 -4.03,11.52 1.34,14.67l39.37 23.32c6.39,3.75 3.71,13.53 -3.71,13.53l-178.35 -0.04c-113.66,-2.13 -205.11,-94.88 -205.11,-209.01l0 0z"/> <path fill="white" fill-rule="nonzero" d="M619.79 429.28l-39.37 -23.32c-5.33,-3.11 -6.04,-10.53 -1.42,-14.59 44.74,-39.02 72.71,-96.74 71.72,-161 -1.77,-111.14 -91.72,-202.35 -202.82,-205.58 -15.74,-0.47 -31.12,0.83 -45.96,3.67 96.03,18.42 169.25,103.04 169.88,203.96 0.31,48.84 -16.14,93.85 -43.95,129.59 -16.8,21.58 -11.36,52.87 12.19,66.79l0.83 0.48c6.27,3.71 3.75,13.29 -3.51,13.53l78.71 0c7.41,0 10.09,-9.74 3.7,-13.53l0 0z"/> <path fill="#E3E8ED" fill-rule="nonzero" d="M1251.24 783.55l-474.24 0c-118.47,0 -183.29,-138.08 -107.62,-229.21l4.18 -5.05c33.34,-40.16 51.61,-90.7 51.61,-142.89l0 -91.45c0,-160.33 129.95,-290.24 290.23,-290.24 160.29,0 290.24,129.91 290.24,290.24l0 94.53c0,52.74 18.63,103.75 52.59,144.11 76.62,90.97 11.96,229.96 -106.99,229.96z"/> <path fill="white" fill-rule="nonzero" d="M1500.57 1018.56l0 313.55 -972.9 0 0 -311.19c0,-70.41 42.22,-134.01 107.19,-161.35l157.02 -68.29 52.9 -23c40.12,-17.44 66.08,-57 66.08,-100.76l0 -20.31 206.57 0 0 19.29c0,43.95 26.19,83.67 66.55,100.99l212.44 91.02c63.32,28.09 104.15,90.81 104.15,160.05l0 0z"/> <path fill="white" fill-rule="nonzero" d="M791.88 866.04c53.57,16.02 132.51,33.1 228.65,31.44 90.23,-1.58 164.32,-19.13 215.84,-35.58l25.64 -60.99 -78.03 -33.42c-40.36,-17.32 -66.55,-57.05 -66.55,-100.99l0 -19.26 -206.57 0 0 20.28c0,43.75 -25.96,83.32 -66.08,100.8l-63.16 27.46 10.26 70.26 0 0z"/> <path fill="#C6DAE9" fill-rule="nonzero" d="M1396.42 858.54l-160.01 -68.6 -0.04 0 0 542.17 264.2 0 0 -313.55c0,-69.24 -40.83,-132.01 -104.15,-160.02l0 0z"/> <path fill="#C6DAE9" fill-rule="nonzero" d="M791.88 791.28l0 540.83 -264.21 0 0 -311.19c0,-70.42 42.22,-134.01 107.19,-161.35l157.02 -68.29z"/> <path fill="white" fill-rule="nonzero" d="M1072.81 605.15l-46.24 0c-21.03,0 -38.11,-17.04 -38.11,-38.11 0,-21.03 17.08,-38.11 38.11,-38.11l46.24 0c21.06,0 38.1,17.08 38.1,38.11 0,21.07 -17.04,38.11 -38.1,38.11z"/> <path fill="#2D4979" fill-rule="nonzero" d="M1026.57 548.7c-10.14,0 -18.39,8.24 -18.39,18.34 0,10.14 8.25,18.39 18.39,18.39l46.24 0c10.13,0 18.38,-8.25 18.38,-18.39 0,-10.1 -8.25,-18.34 -18.38,-18.34l-46.24 0z"/> <path fill="#2D4979" fill-rule="nonzero" d="M1033.16 1006.52c0,10.54 -8.52,19.06 -19.02,19.06 -10.53,0 -19.05,-8.52 -19.05,-19.06 0,-10.53 8.52,-19.05 19.05,-19.05 10.5,0 19.02,8.52 19.02,19.05z"/> <path fill="#E3E8ED" fill-rule="nonzero" d="M1085.75 760.63c23.75,0 46.39,-4.78 67.02,-13.42 -22.13,-20.43 -35.35,-49.51 -35.35,-80.71l0 -19.26 -206.56 0 0 20.28c0,15.82 -3.43,31.05 -9.63,44.94 31.25,29.82 73.58,48.17 120.21,48.17l64.3 0 0.01 0z"/> <path fill="white" fill-rule="nonzero" d="M1220.59 336.49l0 170.9c0,96.26 -78.03,174.3 -174.33,174.3l-64.27 0c-96.26,0 -174.33,-78.04 -174.33,-174.3l0 -170.9c0,-62.61 50.77,-113.38 113.42,-113.38l186.13 0c62.61,0 113.38,50.77 113.38,113.38l0 0z"/> <path fill="white" fill-rule="nonzero" d="M1072.81 605.15l-46.24 0c-21.03,0 -38.11,-17.04 -38.11,-38.11 0,-21.03 17.08,-38.11 38.11,-38.11l46.24 0c21.06,0 38.1,17.08 38.1,38.11 0,21.07 -17.04,38.11 -38.1,38.11z"/> <path fill="#E3E8ED" fill-rule="nonzero" d="M1055.33 177.9c4.42,-55.86 57.87,-92.91 109.04,-112.12 84.62,50.73 141.27,143.32 141.27,249.17l0 19.92c-4.69,0.99 -9.34,1.86 -13.92,2.57 -28.21,4.18 -52.2,2.37 -68.61,0 -105.65,-14.09 -173.15,-92.12 -167.78,-159.54l0 0z"/> <path fill="#E3E8ED" fill-rule="nonzero" d="M1015.4 24.71c65.53,0 126.01,21.74 174.61,58.35 -24.22,42.21 -79.92,125.57 -184.27,187.31 -77.48,45.84 -150.55,61.23 -195.52,67.07l-85.05 0 0 -22.49c0,-160.33 129.95,-290.24 290.23,-290.24z"/> <path fill="white" fill-rule="nonzero" d="M1339.85 1332.11l-631.57 0 -34.83 -328.62c-2.49,-23.28 15.82,-43.64 39.21,-43.64l622.77 0c23.47,0 41.74,20.36 39.26,43.64l-34.84 328.62 0 0z"/> <path fill="#E3E8ED" fill-rule="nonzero" d="M1335.43 959.85l-78.9 0c23.43,0 41.7,20.32 39.25,43.64l-34.83 328.62 78.9 0 34.83 -328.62c2.49,-23.32 -15.78,-43.64 -39.25,-43.64z"/> <path fill="#E3E8ED" fill-rule="nonzero" d="M1079.31 1145.98c0,30.54 -24.73,55.23 -55.27,55.23 -30.49,0 -55.23,-24.69 -55.23,-55.23 0,-30.49 24.74,-55.23 55.23,-55.23 30.54,0 55.27,24.74 55.27,55.23z"/> <path fill="#48566E" fill-rule="nonzero" d="M507.36 253.49c10.89,0 19.72,-8.84 19.72,-19.73 0,-10.93 -8.83,-19.76 -19.72,-19.76 -10.89,0 -19.73,8.83 -19.73,19.76 0,10.89 8.84,19.73 19.73,19.73zm-157.85 0c10.89,0 19.73,-8.84 19.73,-19.73 0,-10.93 -8.84,-19.76 -19.73,-19.76 -10.88,0 -19.72,8.83 -19.72,19.76 0,10.89 8.84,19.73 19.72,19.73zm78.91 0c10.88,0 19.72,-8.84 19.72,-19.73 0,-10.93 -8.84,-19.76 -19.72,-19.76 -10.89,0 -19.73,8.83 -19.73,19.76 0,10.89 8.84,19.73 19.73,19.73zm-4.3 209.01c0.11,0 0.23,0 0.35,0l178.36 0.04 0.04 0c12.31,0 22.76,-7.97 26.04,-19.89 3.23,-11.87 -1.7,-24.06 -12.31,-30.37l-27.11 -16.02c43.6,-43.24 68.09,-102.22 67.74,-164 -0.79,-123.52 -101.94,-225.5 -225.42,-227.27 -128.02,-1.82 -232.17,101.7 -232.17,228.77 0,121.86 100.4,226.09 224.48,228.74zm-128.61 -363.58c36.41,-35.86 84.5,-55.19 135.71,-54.48 102.21,1.5 185.89,85.84 186.52,188.1 0.35,55.15 -23.28,107.62 -64.9,143.92 -6.94,6.03 -10.57,15.14 -9.74,24.34 0.83,9.19 6.07,17.47 14,22.13l0.2 0.12 -132.63 -0.04c-102.58,-1.94 -185.58,-86.44 -185.58,-189.25 0,-51.09 20.04,-98.98 56.42,-134.84l0 0zm1226.6 1213.47l-15.07 0 0 -293.83c0,-76.97 -45.49,-146.88 -116.1,-178.16l-103.96 -44.58c25.29,-8.01 48.14,-22.21 66.76,-41.98 28.05,-29.78 44.14,-70.22 44.14,-110.89 0,-37.4 -13.06,-72.71 -37.79,-102.06 -30.93,-36.73 -47.94,-83.4 -47.94,-131.42l0 -94.52c0,-82.81 -32.27,-160.64 -90.81,-219.19 -58.55,-58.54 -136.38,-90.81 -219.19,-90.81 -170.9,0 -309.97,139.06 -309.97,309.96l0 91.49c0,49.67 -19.48,97.13 -51.24,135.35 -39.93,48.09 -48.21,113.15 -21.66,169.76 19.76,42.01 55.35,72.2 97.96,84.98l-103.29 44.89c-72.43,30.5 -119.22,100.96 -119.22,179.54l0 232.25c0,10.89 8.84,19.73 19.73,19.73 10.89,0 19.72,-8.84 19.72,-19.73l0 -232.25c0,-62.64 37.32,-118.86 95.32,-143.24l129.4 -56.3 0 118.75 -59.46 0c-16.76,0 -32.78,7.14 -43.98,19.6 -11.21,12.47 -16.65,29.16 -14.88,45.85l32.55 306.81 -175.95 -1.19c-10.89,0 -18.7,8.56 -18.7,19.45 0,10.89 8.25,19.29 19.13,19.29l1026.83 1.9c10.89,0 19.72,-8.84 19.72,-19.73 0,-10.89 -11.16,-19.72 -22.05,-19.72l0 0zm-192.2 -746.1c18.66,22.17 28.52,48.68 28.52,76.66 0,30.73 -12.19,61.3 -33.42,83.83 -22.48,23.91 -53.37,37.04 -86.98,37.04l-25.73 0 -33.76 -14.48c-29.51,-12.66 -49.71,-39.8 -53.82,-71.01 60.88,-32.78 102.38,-97.09 102.38,-170.94l0 -148.33c5.76,0.39 11.52,0.59 17.28,0.59 9.47,0 18.93,-0.51 28.32,-1.58l0 51.41c0,57.28 20.32,112.98 57.21,156.81l0 0zm-322.99 311.47c-70.54,1.22 -140.6,-7.7 -208.57,-26.55l0 -46.99 5.72 -2.49c0.04,0 0.08,-0.03 0.16,-0.03l35.19 -15.31c39.17,-17.04 66.86,-51.92 75.23,-92.71 17.2,5.01 35.35,7.73 54.08,7.73l64.31 0c18.86,0 37.04,-2.76 54.28,-7.77 8.68,40.6 36.46,75.15 75.67,91.96l37.56 16.1c0.04,0.04 0.04,0.04 0.08,0.04l2.76 1.18 0 44.38c-63.83,19.06 -129.87,29.27 -196.47,30.46l0 0zm196.47 10.65l0 51.72 -405.04 0 0 -48.09c63.98,16.76 129.63,25.29 195.75,25.29 4.5,0 9.03,-0.04 13.53,-0.12 66.28,-1.15 132,-10.85 195.76,-28.8l0 0zm69.31 -570.14c-54.36,7.33 -115.63,-7.22 -157.84,-39.89 -8.6,-6.67 -20.99,-5.13 -27.65,3.51 -6.67,8.6 -5.09,20.99 3.51,27.66 27.57,21.38 60.87,36.45 96.89,44.02l0 107.43c-9.47,21.58 -20.04,39.57 -43.83,59.17 -10.02,8.29 -20.99,15.15 -32.71,20.6 -9.58,-18.7 -29.07,-31.56 -51.52,-31.56l-46.24 0c-31.87,0 -57.79,25.95 -57.79,57.83 0,31.88 25.92,57.84 57.79,57.84l46.24 0c26.87,0 49.47,-18.39 55.98,-43.2 26.39,-10.06 69.44,-45.92 69.44,-45.96 -13.38,71.76 -76.38,126.24 -151.93,126.24l-64.3 0c-85.22,0 -154.57,-69.36 -154.57,-154.57l0 -152.52c67.02,-10.49 130.3,-33.17 188.37,-67.54 88.41,-52.27 145.1,-120.6 179.31,-174.57 58.54,52.12 91.88,126.88 90.85,205.5l0 0.01zm-194.77 248.85c-0.03,10.1 -8.24,18.31 -18.38,18.31l-46.24 0c-10.1,0 -18.34,-8.25 -18.34,-18.39 0,-10.1 8.24,-18.34 18.34,-18.34l46.24 0c10.14,0 18.34,8.2 18.38,18.3l0 0.12zm-346.29 -252.21c0,-149.12 121.35,-270.47 270.51,-270.47 53.5,0 104.62,15.42 148.3,44.18 -31.49,50.46 -84.51,115.4 -167.99,164.79 -57.28,33.85 -120.12,55.51 -186.76,64.26l-1.22 0c-0.04,0 -0.04,0 -0.04,0 0,0 0,0 -0.04,0l-62.76 0 0 -2.76 0 0zm-76.62 379.83c-20.04,-42.6 -13.77,-91.6 16.26,-127.78 37.71,-45.4 60.39,-101.5 60.36,-160.56l0 -49.24 43.08 0 0 150.23c0,73.89 41.54,138.24 102.45,171.02 -3.83,31.44 -23.91,58.94 -53.5,71.8l-31.32 13.61 -28.6 0c-47.07,0 -88.73,-26.47 -108.73,-69.08zm686.8 306.66l-32.94 310.99 -596.1 0 -32.98 -310.99c-0.6,-5.65 1.18,-11.05 4.97,-15.27 3.78,-4.18 8.99,-6.51 14.67,-6.51l622.77 0c5.64,0 10.89,2.33 14.68,6.51 3.79,4.22 5.52,9.62 4.93,15.27l0 0zm125.77 310.99l-119.06 0 32.55 -306.81c1.77,-16.69 -3.67,-33.38 -14.88,-45.84 -11.2,-12.43 -27.22,-19.61 -43.99,-19.61l-79.37 0 0 -77.96c0.04,-0.23 0.04,-0.51 0,-0.71l0 -41.62 132.32 56.73c56.18,24.86 92.43,80.6 92.43,141.99l0 293.83 0 0zm-456.76 -241.36c-41.35,0 -75,33.61 -75,74.95 0,41.35 33.65,75 75,75 41.34,0 74.95,-33.65 74.95,-75 0,-41.34 -33.61,-74.95 -74.95,-74.95zm0 110.46c-19.61,0 -35.51,-15.94 -35.51,-35.51 0,-19.56 15.9,-35.5 35.51,-35.5 19.57,0 35.5,15.94 35.5,35.5 0,19.57 -15.93,35.51 -35.5,35.51z"/> </g> </svg>