<svg xmlns="http://www.w3.org/2000/svg" xml:space="preserve" width="390px" height="360px" version="1.0" shape-rendering="geometricPrecision" text-rendering="geometricPrecision" image-rendering="optimizeQuality" fill-rule="evenodd" clip-rule="evenodd" viewBox="0 0 390 360.45" xmlns:xlink="http://www.w3.org/1999/xlink" xmlns:xodm="http://www.corel.com/coreldraw/odm/2003"> <g id="Слой_x0020_1"> <metadata id="CorelCorpID_0Corel-Layer"/> <path fill="#E9ECEE" d="M147.29 66.03c80.47,0 145.71,65.24 145.71,145.71 0,80.48 -65.24,145.72 -145.71,145.72 -40.34,0 -76.85,-16.4 -103.24,-42.88 -26.25,-26.36 -42.48,-62.7 -42.48,-102.84 0,-80.47 65.24,-145.71 145.72,-145.71z"/> <path fill="white" fill-rule="nonzero" d="M381.9 224.26l0 79.46 -246.55 0 0 -78.86c0,-17.85 10.7,-33.97 27.16,-40.89l39.79 -17.31 13.41 -5.82c10.17,-4.42 16.75,-14.45 16.75,-25.54l0 -5.14 52.34 0 0 4.88c0,11.14 6.64,21.2 16.88,25.59l53.83 23.07c16.04,7.12 26.39,23.01 26.39,40.56z"/> <path fill="white" fill-rule="nonzero" d="M202.3 185.61c13.59,4.06 33.58,8.39 57.95,7.96 22.87,-0.4 41.64,-4.84 54.7,-9.01l6.49 -15.46 -19.76 -8.47c-10.24,-4.39 -16.88,-14.46 -16.88,-25.59l0 -4.88 -52.34 0 0 5.14c0,11.09 -6.58,21.12 -16.75,25.54l-16.01 6.96 2.6 17.81z"/> <path fill="#E3E8ED" fill-rule="nonzero" d="M355.51 183.7l-40.55 -17.38 -0.01 0 0 137.4 66.95 0 0 -79.46c0,-17.55 -10.34,-33.45 -26.39,-40.56z"/> <path fill="#E3E8ED" fill-rule="nonzero" d="M202.3 166.66l0 137.06 -66.95 0 0 -78.86c0,-17.85 10.7,-33.97 27.16,-40.89l39.79 -17.31z"/> <path fill="white" fill-rule="nonzero" d="M273.5 119.5l-11.72 0c-5.33,0 -9.65,-4.33 -9.65,-9.66 0,-5.34 4.32,-9.66 9.65,-9.66l11.72 0c5.33,0 9.66,4.32 9.66,9.66 0,5.33 -4.33,9.66 -9.66,9.66z"/> <path fill="#2D4979" fill-rule="nonzero" d="M261.78 105.18c-2.56,0 -4.66,2.09 -4.66,4.66 0,2.57 2.1,4.65 4.66,4.65l11.72 0c2.57,0 4.66,-2.08 4.66,-4.65 0,-2.57 -2.09,-4.66 -4.66,-4.66l-11.72 0z"/> <path fill="#2D4979" fill-rule="nonzero" d="M263.45 221.21c0,2.67 -2.15,4.83 -4.82,4.83 -2.67,0 -4.83,-2.16 -4.83,-4.83 0,-2.67 2.16,-4.83 4.83,-4.83 2.67,0 4.82,2.16 4.82,4.83z"/> <path fill="#E3E8ED" fill-rule="nonzero" d="M276.77 158.89c6.02,0 11.76,-1.21 17,-3.39 -5.61,-5.18 -8.97,-12.55 -8.97,-20.46l0 -4.88 -52.34 0 0 5.14c0,4.01 -0.87,7.87 -2.45,11.39 7.93,7.55 18.66,12.2 30.47,12.2l16.29 0z"/> <path fill="white" fill-rule="nonzero" d="M310.95 51.41l0 43.31c0,24.4 -19.78,44.17 -44.18,44.17l-16.29 0c-24.4,0 -44.17,-19.78 -44.17,-44.17l0 -43.31c0,-15.87 12.87,-28.74 28.74,-28.74l47.16 0c15.87,0.01 28.74,12.87 28.74,28.74z"/> <path fill="white" fill-rule="nonzero" d="M273.5 119.5l-11.72 0c-5.33,0 -9.65,-4.33 -9.65,-9.66 0,-5.34 4.32,-9.66 9.65,-9.66l11.72 0c5.33,0 9.66,4.32 9.66,9.66 0,5.33 -4.33,9.66 -9.66,9.66z"/> <path fill="white" fill-rule="nonzero" d="M341.18 303.72l-160.06 0 -8.83 -83.28c-0.62,-5.9 4.01,-11.05 9.94,-11.05l157.83 0c5.94,0 10.57,5.15 9.94,11.05l-8.82 83.28z"/> <path fill="#E3E8ED" fill-rule="nonzero" d="M340.06 209.39l-20 0c5.94,0 10.57,5.14 9.94,11.05l-8.82 83.28 20 0 8.82 -83.28c0.63,-5.91 -4,-11.05 -9.94,-11.05z"/> <path fill="#E3E8ED" fill-rule="nonzero" d="M275.15 256.55c0,7.74 -6.27,14 -14,14 -7.74,0 -14,-6.26 -14,-14 0,-7.73 6.26,-14 14,-14 7.73,0 14,6.27 14,14z"/> <g id="_1522157773136"> <path fill="white" fill-rule="nonzero" d="M368.85 299.41l-261.83 0c-6.62,0 -11.98,-5.38 -11.98,-12.01l0 -190.53c0,-6.63 5.36,-12 11.98,-12l261.83 0c6.62,0 11.98,5.37 11.98,12l0 190.53c0,6.63 -5.36,12.01 -11.98,12.01l0 0z" data-original="#fed23a"/> <path fill="#E6EAEF" fill-rule="nonzero" d="M368.85 84.87l-23 0c6.62,0 11.98,5.37 11.98,12l0 190.53c0,6.63 -5.36,12.01 -11.98,12.01l23 0c6.62,0 11.98,-5.38 11.98,-12.01l0 -190.53c0,-6.63 -5.36,-12 -11.98,-12l0 0z" data-original="#ffc600"/> <g> <g> <g> <g> <g> <path fill="#E6EAEF" fill-rule="nonzero" d="M204.14 7.15l143.05 14.16c2.88,0.29 4.98,2.85 4.7,5.73l-20.29 204.9c-0.26,2.67 -2.64,4.62 -5.32,4.35l-143.42 -14.2c-2.68,-0.26 -4.63,-2.64 -4.37,-5.3l20.32 -205.29c0.27,-2.67 2.65,-4.61 5.33,-4.35z" data-original="#fae19e"/> </g> </g> </g> </g> <g> <g> <g> <g> <path fill="#E6EAEF" fill-rule="nonzero" d="M138.5 52.95l142.36 -19.98c2.86,-0.41 5.51,1.59 5.91,4.45l28.62 203.91c0.38,2.66 -1.48,5.11 -4.14,5.48l-142.73 20.04c-2.66,0.37 -5.12,-1.48 -5.49,-4.13l-28.68 -204.29c-0.37,-2.65 1.49,-5.11 4.15,-5.48l0 0z" data-original="#ffeec2"/> </g> </g> </g> </g> <g> <g> <g> <g> <path fill="#C6DAE9" fill-rule="nonzero" d="M175.36 70.77l143.54 -7.84c2.88,-0.16 5.35,2.05 5.51,4.94l11.23 205.6c0.15,2.68 -1.91,4.96 -4.59,5.11l-143.91 7.86c-2.69,0.15 -4.98,-1.9 -5.13,-4.58l-11.25 -205.98c-0.15,-2.68 1.91,-4.96 4.6,-5.11l0 0z" data-original="#fff9e9"/> </g> </g> </g> </g> <path fill="#C6DAE9" fill-rule="nonzero" d="M335.64 273.47l-11.23 -205.6c-0.16,-2.89 -2.63,-5.1 -5.51,-4.94l-19.55 1.07c1.18,0.89 1.97,2.28 2.06,3.87l11.23 205.6c0.14,2.68 -1.91,4.96 -4.6,5.11l-124.23 6.78c0.91,0.73 2.07,1.15 3.32,1.08l143.91 -7.86c2.69,-0.15 4.75,-2.43 4.6,-5.11l0 0z" data-original="#fff4d6"/> </g> <g> <g> <path fill="white" fill-rule="nonzero" d="M149.56 84.87l-42.54 0c-6.62,0 -11.98,5.37 -11.98,12l0 190.53c0,6.63 5.36,12.01 11.98,12.01l261.83 0c6.62,0 11.98,-5.38 11.98,-12.01l0 -165.32 -219.29 0 -11.98 -37.21z" data-original="#fdf385"/> </g> <g> <polygon fill="#E6EAEF" fill-rule="nonzero" points="161.54,122.08 149.56,84.87 126.56,84.87 138.54,122.08 " data-original="#faee6e"/> <path fill="#E6EAEF" fill-rule="nonzero" d="M357.83 122.08l0 165.32c0,6.63 -5.37,12.01 -11.98,12.01l23 0c6.62,0 11.98,-5.38 11.98,-12.01l0 -165.32 -23 0z" data-original="#faee6e"/> </g> <g> <polygon fill="#C6DAE9" fill-rule="nonzero" points="158.25,216.86 317.62,216.86 317.62,256.24 158.25,256.24 " data-original="#fff9e9"/> </g> </g> </g> <g id="_1522157774912"> <path fill="#48566E" fill-rule="nonzero" d="M368.85 80.56l-17.93 0 5.26 -53.1c0.52,-5.24 -3.32,-9.92 -8.56,-10.44l-16 -1.58c-5.55,-0.56 -6.4,8.03 -0.85,8.58l16 1.58c0.5,0.05 0.87,0.51 0.82,1.01l-9.02 91.15 -7.12 0 -2.73 -50.12c-0.29,-5.2 -4.86,-9.31 -10.06,-9.02l-24.37 1.33 -3.25 -23.13c-0.72,-5.16 -5.62,-8.85 -10.78,-8.12l-79.93 11.21 2.78 -27.99c0.02,-0.29 0.3,-0.5 0.6,-0.48l103.38 10.23c5.55,0.56 6.39,-8.03 0.85,-8.58l-103.38 -10.23c-5.04,-0.5 -9.54,3.18 -10.04,8.21l-2.98 30.08 -53.64 7.53c-5.01,0.7 -8.52,5.35 -7.82,10.35l3.02 21.53 -26.08 0c-8.99,0 -16.3,7.32 -16.3,16.31l0 190.53c0,9 7.31,16.32 16.3,16.32l29.13 0c5.58,0 5.58,-8.63 0,-8.63l-29.13 0c-4.23,0 -7.67,-3.45 -7.67,-7.69l0 -190.53c0,-4.24 3.44,-7.69 7.67,-7.69l39.4 0 11.02 34.22c0.57,1.78 2.23,2.99 4.1,2.99l214.98 0 0 161.01c0,4.24 -3.44,7.69 -7.67,7.69l-207.4 0c-5.57,0 -5.57,8.63 0,8.63l207.4 0c8.98,0 16.29,-7.32 16.29,-16.32l0 -190.53c0,-8.99 -7.31,-16.31 -16.29,-16.31zm-49.72 -13.33c0.57,0.03 0.89,0.32 0.97,0.88l2.72 49.65 -145.45 0 -2.3 -42.12c0.01,-0.33 0.19,-0.52 0.52,-0.56l143.54 -7.85zm-165.45 16.37c-0.55,-1.78 -2.26,-3.04 -4.12,-3.04l-7.75 0 -3.19 -22.73c-0.04,-0.29 0.18,-0.57 0.48,-0.61l55.76 -7.83c0.06,0.01 0.13,0.03 0.2,0.03 0.14,0.02 0.29,0.03 0.43,0.03 0.63,0 1.23,-0.15 1.78,-0.39l84.19 -11.82c0.56,-0.03 0.91,0.23 1.04,0.78l3.15 22.41 -110.53 6.03c-4.99,0.27 -8.94,4.65 -8.67,9.65l2.28 41.65 -4.04 0 -11.01 -34.16zm193.56 34.16l2.83 -28.58 18.78 0c4.23,0 7.67,3.45 7.67,7.69l0 20.89 -29.28 0 0 0z" data-original="#060606"/> <path fill="#48566E" fill-rule="nonzero" d="M317.62 260.55c2.38,0 4.31,-1.93 4.31,-4.31l0 -39.38c0,-2.38 -1.93,-4.31 -4.31,-4.31l-159.37 0c-2.39,0 -4.32,1.93 -4.32,4.31l0 39.38c0,2.38 1.93,4.31 4.32,4.31l159.37 0zm-155.06 -39.38l150.75 0 0 30.76 -150.75 0 0 -30.76z" data-original="#060606"/> <path fill="#48566E" fill-rule="nonzero" d="M290.66 232.24l-105.45 0c-5.58,0 -5.58,8.62 0,8.62l105.45 0c5.58,0 5.58,-8.62 0,-8.62z" data-original="#060606"/> </g> </g> </svg>