<svg xmlns="http://www.w3.org/2000/svg" version="1.1" xmlns:xlink="http://www.w3.org/1999/xlink" xmlns:svgjs="http://svgjs.com/svgjs" width="512" height="512" x="0" y="0" viewBox="0 0 512 512" style="enable-background:new 0 0 512 512" xml:space="preserve" class=""><g><path d="m276 372.001c0 11.046-8.954 20-20 20s-20-8.954-20-20 8.954-20 20-20 20 8.954 20 20zm-20-252.001c-11.046 0-20 8.954-20 20v151.999c0 11.046 8.954 20 20 20s20-8.954 20-20v-151.999c0-11.046-8.954-20-20-20zm254.909 365.55c5.313 15.675-9.693 30.669-25.361 25.361l-100.232-33.977c-39.135 22.951-83.639 35.035-129.332 35.035-141.493 0-255.984-114.51-255.984-255.985 0-141.494 114.509-255.984 255.984-255.984 141.493 0 255.984 114.51 255.984 255.984 0 45.693-12.084 90.197-35.035 129.332zm-72.776-113.45c22.136-34.647 33.837-74.799 33.837-116.116 0-119.386-96.617-215.987-215.986-215.987-119.386 0-215.986 96.617-215.986 215.987 0 119.386 96.617 215.987 215.986 215.987 41.317 0 81.469-11.701 116.116-33.837 5.116-3.269 11.439-4.037 17.188-2.088l70.736 23.979-23.978-70.736c-1.949-5.75-1.181-12.073 2.087-17.189z" fill="#000000" data-original="#000000" class=""></path></g></svg>