<svg xmlns="http://www.w3.org/2000/svg" xml:space="preserve" width="980px" height="1287px" version="1.0" shape-rendering="geometricPrecision" text-rendering="geometricPrecision" image-rendering="optimizeQuality" fill-rule="evenodd" clip-rule="evenodd" viewBox="0 0 980 1286.99" xmlns:xlink="http://www.w3.org/1999/xlink" xmlns:xodm="http://www.corel.com/coreldraw/odm/2003"> <path fill="#B8B9BE" fill-rule="nonzero" d="M490 3.7c-177.54,0 -323.1,143.95 -323.1,323.1 0,177.54 143.96,323.09 323.1,323.09 177.54,0 323.1,-143.95 323.1,-323.09 0,-179.15 -145.56,-323.1 -323.1,-323.1zm0 483.04c-89.57,0 -161.55,-71.97 -161.55,-161.54 0,-89.57 71.98,-161.55 161.55,-161.55 89.57,0 161.55,71.98 161.55,161.55 0,89.57 -71.98,161.54 -161.55,161.54z" data-original="#000000"/> <path fill="#B8B9BE" fill-rule="nonzero" d="M965.05 699.48c-28.79,-52.79 -95.97,-71.98 -148.75,-41.59 -219.13,123.16 -433.47,123.16 -652.6,0 -52.78,-30.39 -119.96,-11.2 -148.75,41.59 -30.39,52.78 -11.19,119.96 41.59,148.75 75.17,43.18 151.95,73.57 228.73,94.37l-155.16 155.15c-43.18,43.18 -43.18,111.96 0,153.55 43.19,43.18 111.97,43.18 153.56,0l206.33 -206.34 206.33 206.34c43.19,43.18 111.97,43.18 153.55,0 43.19,-43.19 43.19,-111.97 0,-153.55l-155.15 -155.15c76.78,-20.8 153.55,-51.19 228.73,-94.37 52.78,-30.39 71.98,-95.97 41.58,-148.75l0.01 0z" data-original="#000000"/> </svg>