<svg xmlns="http://www.w3.org/2000/svg" version="1.1" xmlns:xlink="http://www.w3.org/1999/xlink" xmlns:svgjs="http://svgjs.com/svgjs" width="512" height="512" x="0" y="0" viewBox="0 0 24 24" style="enable-background:new 0 0 512 512" xml:space="preserve" class=""><g><g clip-rule="evenodd" fill="rgb(0,0,0)" fill-rule="evenodd"><path d="m12 2.75c-5.10863 0-9.25 4.14137-9.25 9.25 0 5.1086 4.14137 9.25 9.25 9.25 5.1086 0 9.25-4.1414 9.25-9.25 0-5.10863-4.1414-9.25-9.25-9.25zm-10.75 9.25c0-5.93706 4.81294-10.75 10.75-10.75 5.9371 0 10.75 4.81294 10.75 10.75 0 5.9371-4.8129 10.75-10.75 10.75-5.93706 0-10.75-4.8129-10.75-10.75z" fill="#000000" data-original="#000000" class=""></path><path d="m5.25 9.5c0-.41421.33579-.75.75-.75h4c.4142 0 .75.33579.75.75s-.3358.75-.75.75h-4c-.41421 0-.75-.33579-.75-.75z" fill="#000000" data-original="#000000" class=""></path><path d="m8 8.75c.41421 0 .75.33579.75.75v5c0 .4142-.33579.75-.75.75s-.75-.3358-.75-.75v-5c0-.41421.33579-.75.75-.75z" fill="#000000" data-original="#000000" class=""></path><path d="m12.7447 8.79477c.2969-.10749.6293-.01751.8315.22507l1.9238 2.30856 1.9238-2.30856c.2022-.24258.5346-.33256.8315-.22507.2969.1075.4947.38944.4947.70521v5.00002c0 .4142-.3358.75-.75.75s-.75-.3358-.75-.75v-2.9285l-1.1738 1.4086c-.1425.171-.3536.2699-.5762.2699s-.4337-.0989-.5762-.2699l-1.1738-1.4086v2.9285c0 .4142-.3358.75-.75.75s-.75-.3358-.75-.75v-5.00002c0-.31577.1978-.59771.4947-.70521z" fill="#000000" data-original="#000000" class=""></path></g></g></svg>