<svg xmlns="http://www.w3.org/2000/svg" version="1.1" xmlns:xlink="http://www.w3.org/1999/xlink" xmlns:svgjs="http://svgjs.com/svgjs" width="512" height="512" x="0" y="0" viewBox="0 0 16 16" style="enable-background:new 0 0 512 512" xml:space="preserve" class=""><g><g id="_22" data-name="22"><path d="m8 16a8 8 0 1 1 8-8 8 8 0 0 1 -8 8zm0-15a7 7 0 1 0 7 7 7 7 0 0 0 -7-7z" fill="#000000" data-original="#000000" class=""></path><path d="m12 10.5a.47.47 0 0 1 -.35-.15l-3.65-3.64-3.65 3.64a.49.49 0 0 1 -.7-.7l4-4a.48.48 0 0 1 .7 0l4 4a.48.48 0 0 1 0 .7.47.47 0 0 1 -.35.15z" fill="#000000" data-original="#000000" class=""></path></g></g></svg>