<svg xmlns="http://www.w3.org/2000/svg" xml:space="preserve" width="1287px" height="732px" version="1.0" shape-rendering="geometricPrecision" text-rendering="geometricPrecision" image-rendering="optimizeQuality" fill-rule="evenodd" clip-rule="evenodd" viewBox="0 0 1287 732.06" xmlns:xlink="http://www.w3.org/1999/xlink" xmlns:xodm="http://www.corel.com/coreldraw/odm/2003"> <path fill="#B8B9BE" d="M627.39 730.42l76.77 0c0,0 22.4,-3.2 35.19,-16 11.2,-11.19 11.2,-33.59 11.2,-33.59 0,0 -1.6,-102.37 46.39,-118.36 46.38,-14.4 107.16,99.17 171.14,142.35 47.99,33.59 84.77,25.6 84.77,25.6l171.15 -1.6c0,0 89.57,-4.8 46.39,-75.18 -3.2,-6.4 -24,-52.78 -126.37,-147.15 -107.16,-99.17 -92.77,-83.18 36.79,-255.92 78.38,-103.97 110.37,-167.95 100.77,-196.74 -9.6,-25.59 -67.18,-19.2 -67.18,-19.2l-191.94 1.6c0,0 -14.39,-1.6 -25.59,4.8 -12.8,8 -19.19,22.4 -19.19,22.4 0,0 -30.39,81.57 -70.38,150.35 -86.37,145.55 -119.96,153.55 -134.36,143.95 -31.99,-20.79 -23.99,-84.77 -23.99,-129.56 0,-140.75 20.79,-199.93 -41.59,-214.33 -20.79,-4.8 -36.79,-8 -89.57,-9.6 -68.78,0 -126.36,0 -159.95,16 -22.39,11.2 -38.39,35.19 -28.79,35.19 12.79,1.6 41.58,8 55.98,28.79 19.19,27.19 19.19,86.37 19.19,86.37 0,0 11.2,166.35 -27.19,187.15 -25.59,14.39 -60.78,-14.4 -137.55,-147.16 -38.39,-67.18 -68.78,-142.35 -68.78,-142.35 0,0 -6.4,-14.4 -16,-20.8 -8,-6.4 -23.99,-11.19 -41.58,-11.19l-171.15 1.6c0,0 -27.19,0 -36.79,12.79 -9.6,11.2 0,31.99 0,31.99 0,0 143.96,334.3 305.51,502.24 148.75,156.75 316.7,145.56 316.7,145.56l0 0z" data-original="#000000"/> </svg>