<svg xmlns="http://www.w3.org/2000/svg" xml:space="preserve" width="1512px" height="1063px" version="1.0" shape-rendering="geometricPrecision" text-rendering="geometricPrecision" image-rendering="optimizeQuality" fill-rule="evenodd" clip-rule="evenodd" viewBox="0 0 1512 1063.13" xmlns:xlink="http://www.w3.org/1999/xlink" xmlns:xodm="http://www.corel.com/coreldraw/odm/2003"> <path fill="#B8B9BE" fill-rule="nonzero" d="M1476.39 172.2c-17.29,-64.27 -67.96,-114.93 -132.22,-132.24 -117.4,-32.12 -586.98,-32.12 -586.98,-32.12 0,0 -469.57,0 -586.97,30.91 -63.02,17.28 -114.93,69.19 -132.21,133.45 -30.9,117.39 -30.9,360.83 -30.9,360.83 0,0 0,244.67 30.9,360.82 17.3,64.26 67.95,114.93 132.22,132.23 118.62,32.13 586.98,32.13 586.98,32.13 0,0 469.56,0 586.96,-30.9 64.27,-17.3 114.93,-67.96 132.24,-132.22 30.88,-117.39 30.88,-360.83 30.88,-360.83 0,0 1.24,-244.67 -30.9,-362.06l0 0zm-868.71 585.73l0 -449.8 390.48 224.9 -390.48 224.9zm0 0z" data-original="#000000"/> </svg>